<svg xmlns="http://www.w3.org/2000/svg" xmlns:xlink="http://www.w3.org/1999/xlink" width="151.722" height="33.194" viewBox="0 0 151.722 33.194"><defs><style>.a{fill:none;}.b{clip-path:url(#a);}.c{fill:#fff;}</style><clipPath id="a"><rect class="a" width="151.722" height="33.194" transform="translate(0 0.001)"/></clipPath></defs><g transform="translate(0 0)"><g class="b"><path class="c" d="M75.844,0A16.38,16.38,0,0,1,92.462,16.63a16.423,16.423,0,0,1-16.6,16.564A16.6,16.6,0,0,1,75.844,0M89.453,16.626A13.458,13.458,0,0,0,75.938,3.013,13.648,13.648,0,0,0,62.279,16.542,13.717,13.717,0,0,0,75.851,30.185c6.8.071,13.78-5.67,13.6-13.559"/><path class="c" d="M68.393,19.277h4.058a1.232,1.232,0,0,1,.117.285,2.816,2.816,0,0,0,2.457,2.583c1.621.312,3.086.042,3.969-1.439a7.731,7.731,0,0,0,.216-7.758c-.7-1.417-2.24-1.887-4.09-1.515a2.959,2.959,0,0,0-2.508,2.777l.991.083c-1.09,1.045-2.146,2.058-3.142,3.015-.953-.957-1.982-1.99-3.03-3.04h1c.068-.248.126-.43.17-.615a7.193,7.193,0,0,1,8.663-5.7,8.172,8.172,0,0,1,6.993,7.727,9.486,9.486,0,0,1-2,7.139,8.512,8.512,0,0,1-9.835,2.225,6.844,6.844,0,0,1-4.03-5.762"/><path class="c" d="M135.146,0a16.6,16.6,0,1,1-16.615,16.45A16.588,16.588,0,0,1,135.146,0m0,30.336A13.74,13.74,0,1,0,121.386,16.6,13.771,13.771,0,0,0,135.145,30.34"/><path class="c" d="M137.653,27.3h-5.009V19.4c-.53-.04-.968-.071-1.521-.111,0-1.009,0-2,0-3,0-1.145-.013-2.29.005-3.434.016-1.111.371-1.462,1.456-1.466,1.759-.008,3.518,0,5.278,0,.736,0,1.222.353,1.234,1.075.039,2.255.015,4.512.015,6.836l-1.458.082Z"/><path class="c" d="M132.745,8.25a2.382,2.382,0,1,1,2.362,2.427,2.364,2.364,0,0,1-2.362-2.427"/><path class="c" d="M16.654,0A16.378,16.378,0,0,1,33.2,16.685,16.523,16.523,0,0,1,16.526,33.194,16.7,16.7,0,0,1,0,16.559C-.036,8.133,7.03-.2,16.654,0M30.193,16.68A13.538,13.538,0,0,0,16.743,3C8.422,2.867,2.964,10.18,3,16.539a13.792,13.792,0,0,0,13.534,13.61c6.61.04,13.748-5.185,13.655-13.469"/><path class="c" d="M16.4,13.862,14.326,14.94A7.379,7.379,0,0,0,13.2,13.928a1.834,1.834,0,0,0-2.735,1,8.733,8.733,0,0,0-.078,3.032,1.71,1.71,0,0,0,1.573,1.511,2.062,2.062,0,0,0,2.234-.956c.071-.114.149-.225.259-.39l1.931.981A4.729,4.729,0,0,1,11,21.655a4.523,4.523,0,0,1-3.826-4.6c-.147-2.764,1.1-4.777,3.364-5.423a5,5,0,0,1,5.86,2.229"/><path class="c" d="M24.042,18.132l1.952.991a4.905,4.905,0,0,1-5.688,2.49c-2.178-.476-3.515-2.305-3.542-4.845-.03-2.68,1.277-4.613,3.493-5.168a4.847,4.847,0,0,1,5.7,2.266L23.93,14.942A7.247,7.247,0,0,0,22.8,13.93a1.872,1.872,0,0,0-2.792,1.049,7.809,7.809,0,0,0-.12,2.8,1.85,1.85,0,0,0,1.606,1.7c1.082.182,1.691-.127,2.544-1.342"/></g></g></svg>