<svg xmlns="http://www.w3.org/2000/svg" xmlns:xlink="http://www.w3.org/1999/xlink" width="9.401" height="20.214" viewBox="0 0 9.401 20.214"><defs><style>.a{fill:#3c3f47;}.b{clip-path:url(#a);}</style><clipPath id="a"><rect class="a" width="9.401" height="20.214"/></clipPath></defs><g class="b" transform="translate(0 0)"><path class="a" d="M0,6.648v3.5H2.092v10.07h4.16V10.131c.849,0,1.646-.01,2.442,0,.282.006.375-.084.385-.365.015-.4.087-.808.128-1.208.064-.625.125-1.25.192-1.931H6.239V5.078c0-.177,0-.354.009-.528.06-.736.366-1.027,1.113-1.057.3-.013.6,0,.893,0H9.369V.006C8.432.006,7.516-.01,6.6.012A9.4,9.4,0,0,0,5.193.153,3.406,3.406,0,0,0,2.169,3.4C2.084,4.327,2.1,5.265,2.08,6.2v.452Z" transform="translate(0 0)"/></g></svg>