<svg xmlns="http://www.w3.org/2000/svg" xmlns:xlink="http://www.w3.org/1999/xlink" width="27" height="26" viewBox="0 0 27 26"><defs><style>.a{fill:#fff;}.b{clip-path:url(#a);}</style><clipPath id="a"><rect class="a" width="27" height="26" transform="translate(0.406 0.001)"/></clipPath></defs><g transform="translate(-0.406 0)"><g class="b" transform="translate(0 0)"><path class="a" d="M19.366,26.444H7.075A7.084,7.084,0,0,1,0,19.367V7.077A7.083,7.083,0,0,1,7.075,0h12.29a7.093,7.093,0,0,1,7.078,7.077v12.29a7.093,7.093,0,0,1-7.078,7.077M7.075,2.086a5,5,0,0,0-4.99,4.991v12.29a5,5,0,0,0,4.99,4.991h12.29a5,5,0,0,0,4.991-4.991V7.077a5,5,0,0,0-4.991-4.991ZM13.222,21.5A6.884,6.884,0,1,1,20.1,14.61v0A6.892,6.892,0,0,1,13.222,21.5m0-11.682a4.8,4.8,0,1,0,4.8,4.8h0a4.8,4.8,0,0,0-4.8-4.8Zm8.484-3.18A1.808,1.808,0,1,0,19.9,8.442a1.809,1.809,0,0,0,1.808-1.808Z" transform="translate(0.141 -0.32)"/></g></g></svg>