<svg xmlns="http://www.w3.org/2000/svg" width="25.986" height="25.986" viewBox="0 0 25.986 25.986"><defs><style>.a{fill:#fff;}</style></defs><path class="a" d="M112.18,290.384a12.993,12.993,0,1,0,12.993,12.993A12.993,12.993,0,0,0,112.18,290.384Zm6.409,10.945c.006.132.008.267.008.4a8.831,8.831,0,0,1-13.6,7.441,6.167,6.167,0,0,0,.74.044,6.23,6.23,0,0,0,3.857-1.33,3.109,3.109,0,0,1-2.9-2.156,3.118,3.118,0,0,0,1.4-.054,3.107,3.107,0,0,1-2.491-3.045v-.039a3.086,3.086,0,0,0,1.407.389,3.109,3.109,0,0,1-.961-4.147,8.813,8.813,0,0,0,6.4,3.245,3.107,3.107,0,0,1,5.292-2.833,6.21,6.21,0,0,0,1.973-.754,3.111,3.111,0,0,1-1.366,1.718,6.207,6.207,0,0,0,1.783-.488A6.3,6.3,0,0,1,118.588,301.329Z" transform="translate(-99.186 -290.384)"/></svg>