<svg xmlns="http://www.w3.org/2000/svg" xmlns:xlink="http://www.w3.org/1999/xlink" width="21.119" height="17.267" viewBox="0 0 21.119 17.267"><defs><style>.a{fill:#3c3f47;}.b{clip-path:url(#a);}</style><clipPath id="a"><rect class="a" width="21.119" height="17.267"/></clipPath></defs><g class="b" transform="translate(0 0)"><path class="a" d="M20.524.454C19.753.731,19,1,18.252,1.274a.64.64,0,0,1-.724-.17,4.344,4.344,0,0,0-7.187,3.91,3.308,3.308,0,0,1,0,.339A12.541,12.541,0,0,1,1.376.786a4.487,4.487,0,0,0,1.291,5.8L2.6,6.67.766,6.158a4.638,4.638,0,0,0,3.389,4.326H2.307a4.492,4.492,0,0,0,4.066,3.032A8.949,8.949,0,0,1,0,15.329c.17.117.232.155.3.193a12.149,12.149,0,0,0,5.588,1.705,11.822,11.822,0,0,0,6.767-1.483A12.365,12.365,0,0,0,19,4.71a.769.769,0,0,1,.322-.678,7.83,7.83,0,0,0,1.8-1.936c-.425.141-.784.278-1.154.378s-.757.164-1.135.244A5.028,5.028,0,0,0,20.524.454" transform="translate(0 0)"/></g></svg>