<svg xmlns="http://www.w3.org/2000/svg" width="138.214" height="15.156" viewBox="0 0 138.214 15.156"><defs><style>.a{fill:#fff;}</style></defs><path class="a" d="M286.249,306.1a3.964,3.964,0,0,1-.719,2.526,2.252,2.252,0,0,1-1.85.9,2.143,2.143,0,0,1-1.243-.345,1.878,1.878,0,0,1-.719-.94,3.093,3.093,0,0,1-2.435,1.284,2.444,2.444,0,0,1-1.912-.85,3.619,3.619,0,0,1-.752-2.472,3.761,3.761,0,0,1,.9-2.715,3.2,3.2,0,0,1,2.408-.926,8.831,8.831,0,0,1,2.632.414v4.59a1.45,1.45,0,0,0,.309.92,1.046,1.046,0,0,0,.875.4,1.44,1.44,0,0,0,1.266-.694,3.764,3.764,0,0,0,.464-2.079,7.167,7.167,0,0,0-.428-2.531,5.1,5.1,0,0,0-1.181-1.876,5.219,5.219,0,0,0-1.768-1.134,5.922,5.922,0,0,0-2.185-.4,6,6,0,0,0-2.2.4,4.944,4.944,0,0,0-2.939,3.007,7.139,7.139,0,0,0-.425,2.534,6.59,6.59,0,0,0,.743,3.221,4.914,4.914,0,0,0,2.026,2.032,6.223,6.223,0,0,0,2.956.676,7.181,7.181,0,0,0,3.594-.859l.095.658a6.627,6.627,0,0,1-1.673.6,8.968,8.968,0,0,1-2.031.226,6.976,6.976,0,0,1-3.432-.814,5.536,5.536,0,0,1-2.26-2.295,7.8,7.8,0,0,1,.016-6.867,5.687,5.687,0,0,1,2.249-2.321,6.524,6.524,0,0,1,3.3-.823,6.607,6.607,0,0,1,3.295.81,5.635,5.635,0,0,1,2.231,2.3A7.19,7.19,0,0,1,286.249,306.1Zm-4.944,1.212v-3.446a4.362,4.362,0,0,0-1.409-.226,1.821,1.821,0,0,0-1.5.638,2.941,2.941,0,0,0-.517,1.884,2.661,2.661,0,0,0,.448,1.657,1.39,1.39,0,0,0,1.16.584A2.412,2.412,0,0,0,281.3,307.317Z" transform="translate(-273.572 -297.52)"/><path class="a" d="M300.874,305.288A4.974,4.974,0,0,1,299.6,308.9a4.655,4.655,0,0,1-3.5,1.313,4.589,4.589,0,0,1-3.456-1.3,4.861,4.861,0,0,1-1.26-3.532V297.8h1.668v7.364a3.994,3.994,0,0,0,.77,2.591,2.768,2.768,0,0,0,2.294.949,2.9,2.9,0,0,0,2.307-.9,3.807,3.807,0,0,0,.788-2.573V297.8h1.667Z" transform="translate(-276.45 -297.236)"/><path class="a" d="M315.494,309.988H314.24l-6.706-9.478v9.478h-1.542V297.8h1.5l6.462,9.14V297.8h1.542Z" transform="translate(-278.811 -297.236)"/><path class="a" d="M327.157,299.319h-4.687v3.722h3.676l.241,1.527h-3.917v5.42H320.8V297.8h6.354Z" transform="translate(-281.204 -297.236)"/><path class="a" d="M338.247,301.371a3.28,3.28,0,0,1-1.182,2.737,5.1,5.1,0,0,1-3.245.938h-1.284v4.942h-1.668V297.8h3.2a4.624,4.624,0,0,1,3.064.94A3.252,3.252,0,0,1,338.247,301.371Zm-1.67.031a1.922,1.922,0,0,0-.665-1.589,2.973,2.973,0,0,0-1.927-.542h-1.45v4.3h1.379a3.145,3.145,0,0,0,1.978-.537A1.947,1.947,0,0,0,336.577,301.4Z" transform="translate(-282.831 -297.236)"/><path class="a" d="M352.163,309.749l-1.6.354-1.441-3.783H344.1l-1.378,3.657h-1.685l4.762-12.242h1.668Zm-3.61-4.888-1.959-5.152-1.943,5.152Z" transform="translate(-284.474 -297.225)"/><path class="a" d="M365.389,308.995a5.989,5.989,0,0,1-1.7.855,6.33,6.33,0,0,1-1.994.322,5.57,5.57,0,0,1-2.972-.787,5.178,5.178,0,0,1-1.972-2.218,8.226,8.226,0,0,1,.008-6.611,5.253,5.253,0,0,1,1.985-2.232,5.566,5.566,0,0,1,2.981-.8,5.943,5.943,0,0,1,3.463,1.012l-.26,1.683a5.24,5.24,0,0,0-3.219-1.173,3.531,3.531,0,0,0-2.893,1.291,6.351,6.351,0,0,0,0,7.012,3.546,3.546,0,0,0,2.892,1.291,5.841,5.841,0,0,0,3.432-1.222Z" transform="translate(-286.903 -297.192)"/><path class="a" d="M376.11,303.258a5.29,5.29,0,0,1,0,6.428,3.681,3.681,0,0,1-2.829,1.173,3.637,3.637,0,0,1-2.8-1.173,5.32,5.32,0,0,1,0-6.428,3.634,3.634,0,0,1,2.8-1.18A3.677,3.677,0,0,1,376.11,303.258Zm-.5,3.214a3.729,3.729,0,0,0-.615-2.212,1.98,1.98,0,0,0-1.712-.866,1.958,1.958,0,0,0-1.7.85,3.815,3.815,0,0,0-.6,2.228,3.752,3.752,0,0,0,.609,2.211,1.953,1.953,0,0,0,1.688.859,1.985,1.985,0,0,0,1.724-.848A3.752,3.752,0,0,0,375.609,306.472Z" transform="translate(-289.057 -297.927)"/><path class="a" d="M382.79,309.879h-1.574V297.368l1.574-.241Z" transform="translate(-290.967 -297.127)"/><path class="a" d="M392.322,303.258a5.294,5.294,0,0,1,0,6.428,3.681,3.681,0,0,1-2.829,1.173,3.636,3.636,0,0,1-2.8-1.173,5.32,5.32,0,0,1,0-6.428,3.633,3.633,0,0,1,2.8-1.18A3.677,3.677,0,0,1,392.322,303.258Zm-.5,3.214a3.729,3.729,0,0,0-.615-2.212,1.98,1.98,0,0,0-1.712-.866,1.957,1.957,0,0,0-1.7.85,3.814,3.814,0,0,0-.6,2.228,3.752,3.752,0,0,0,.609,2.211,1.951,1.951,0,0,0,1.688.859,1.983,1.983,0,0,0,1.723-.848A3.747,3.747,0,0,0,391.821,306.472Z" transform="translate(-291.677 -297.927)"/><path class="a" d="M409.248,310.679h-1.574v-5.743q0-1.446-1.24-1.448a3.473,3.473,0,0,0-2.388,1.372v5.819h-1.574v-5.743q0-1.446-1.231-1.448a3.474,3.474,0,0,0-2.4,1.372v5.819h-1.566V302.26h1.247l.195,1.212a6.822,6.822,0,0,1,1.41-1.018,3.223,3.223,0,0,1,1.528-.376,2.125,2.125,0,0,1,2.224,1.394,4.326,4.326,0,0,1,2.968-1.394,2.325,2.325,0,0,1,1.791.654,2.574,2.574,0,0,1,.606,1.822Z" transform="translate(-293.563 -297.927)"/><path class="a" d="M421.886,305.439a6.084,6.084,0,0,1-.3,2,3.509,3.509,0,0,1-2.157,2.263,4.693,4.693,0,0,1-1.676.287,11.243,11.243,0,0,1-3.291-.526V297.368l1.567-.241v5.31a3.467,3.467,0,0,1,2.538-1.159,3.238,3.238,0,0,1,1.284.257,3.149,3.149,0,0,1,1.055.761,3.528,3.528,0,0,1,.72,1.307A5.925,5.925,0,0,1,421.886,305.439Zm-1.574.063a3.439,3.439,0,0,0-.552-2.088,1.716,1.716,0,0,0-1.44-.741,3.046,3.046,0,0,0-2.294,1.388v4.293a5.267,5.267,0,0,0,.788.221,5.094,5.094,0,0,0,.91.067,2.385,2.385,0,0,0,1.921-.776A3.562,3.562,0,0,0,420.312,305.5Z" transform="translate(-296.339 -297.127)"/><path class="a" d="M427.272,298.175a.963.963,0,0,1-.682,1.645.917.917,0,0,1-.678-.282.976.976,0,0,1,0-1.363.917.917,0,0,1,.678-.282A.932.932,0,0,1,427.272,298.175ZM427.38,310h-1.574v-8.419h1.574Z" transform="translate(-298.145 -297.251)"/><path class="a" d="M437.1,310.679h-1.284l-.182-1.119a4.074,4.074,0,0,1-2.96,1.3,2.521,2.521,0,0,1-1.807-.634,2.243,2.243,0,0,1-.669-1.708,2.712,2.712,0,0,1,.22-1.117,2.371,2.371,0,0,1,.638-.848,3.734,3.734,0,0,1,1.077-.625,8.792,8.792,0,0,1,1.481-.43q.822-.167,1.912-.286v-.351q0-1.451-1.621-1.45a7.2,7.2,0,0,0-2.9.736l-.21-1.363a10.145,10.145,0,0,1,1.59-.523,7.162,7.162,0,0,1,1.669-.182,3.434,3.434,0,0,1,2.3.651,2.566,2.566,0,0,1,.75,2.043Zm-1.575-2.31v-1.96a13.287,13.287,0,0,0-1.583.239,5.677,5.677,0,0,0-1.09.343,2.435,2.435,0,0,0-.66.429,1.354,1.354,0,0,0-.345.48,1.412,1.412,0,0,0-.092.515,1.066,1.066,0,0,0,.334.823,1.311,1.311,0,0,0,.92.3A3.471,3.471,0,0,0,435.52,308.369Z" transform="translate(-298.882 -297.927)"/></svg>