<svg xmlns="http://www.w3.org/2000/svg" width="25.985" height="25.986" viewBox="0 0 25.985 25.986"><defs><style>.a{fill:#fff;}</style></defs><path class="a" d="M495.2,305.992h-3.751a8.984,8.984,0,0,0,2.1,5.3,10.142,10.142,0,0,1,2.182-1.336A17.921,17.921,0,0,1,495.2,305.992Z" transform="translate(-487.871 -292.906)"/><path class="a" d="M496.543,311.886a9.2,9.2,0,0,0-1.773,1.088,9.036,9.036,0,0,0,3.483,2.072,9.213,9.213,0,0,1-1.71-3.162Z" transform="translate(-488.408 -293.858)"/><path class="a" d="M496.543,298.29a9.221,9.221,0,0,1,1.71-3.165,9.038,9.038,0,0,0-3.483,2.073,9.213,9.213,0,0,0,1.773,1.091Z" transform="translate(-488.408 -291.15)"/><path class="a" d="M495.722,299.807a10.179,10.179,0,0,1-2.182-1.337,8.986,8.986,0,0,0-2.1,5.3H495.2A17.921,17.921,0,0,1,495.722,299.807Z" transform="translate(-487.871 -291.691)"/><path class="a" d="M502.787,294.7v4.467a10.668,10.668,0,0,0,3-.572C505.105,296.5,504.018,295.024,502.787,294.7Z" transform="translate(-489.704 -291.082)"/><path class="a" d="M508.357,303.772h3.752a8.98,8.98,0,0,0-2.1-5.3,10.2,10.2,0,0,1-2.181,1.336A17.857,17.857,0,0,1,508.357,303.772Z" transform="translate(-490.519 -291.691)"/><path class="a" d="M508.936,297.2a9.029,9.029,0,0,0-3.482-2.073,9.227,9.227,0,0,1,1.709,3.163A9.188,9.188,0,0,0,508.936,297.2Z" transform="translate(-490.135 -291.15)"/><path class="a" d="M501.011,315.223v-4.467a10.664,10.664,0,0,0-3,.572C498.693,313.422,499.781,314.9,501.011,315.223Z" transform="translate(-488.931 -293.676)"/><path class="a" d="M498.008,298.6a10.634,10.634,0,0,0,3,.573V294.7C499.781,295.024,498.693,296.5,498.008,298.6Z" transform="translate(-488.931 -291.082)"/><path class="a" d="M497.587,309.585a11.6,11.6,0,0,1,3.28-.6v-2.991h-3.751A16.964,16.964,0,0,0,497.587,309.585Z" transform="translate(-488.787 -292.906)"/><path class="a" d="M497.116,304.1h3.751v-2.991a11.593,11.593,0,0,1-3.28-.6A16.955,16.955,0,0,0,497.116,304.1Z" transform="translate(-488.787 -292.02)"/><path class="a" d="M500.175,290.384a12.993,12.993,0,1,0,12.993,12.993A12.992,12.992,0,0,0,500.175,290.384ZM499.769,313a9.991,9.991,0,0,1-7.282-3.147.477.477,0,0,1-.075-.055.5.5,0,0,1-.043-.074,9.975,9.975,0,0,1,0-13.523.5.5,0,0,1,.043-.074.525.525,0,0,1,.075-.056,9.992,9.992,0,0,1,14.555,0,.444.444,0,0,1,.075.056.5.5,0,0,1,.043.074h0a9.969,9.969,0,0,1,2.417,8.866l-.943-.457a9.012,9.012,0,0,0,.136-1.146h-2.5l-2.254-1.092a17.047,17.047,0,0,0-.468-3.505,11.571,11.571,0,0,1-3.281.6v2.991h.725a1.083,1.083,0,0,0-.008.317l.085.688h-.8v2.991a11.654,11.654,0,0,1,1.186.1l.129,1.04a10.765,10.765,0,0,0-1.315-.141v4.468a3.293,3.293,0,0,0,1.694-1.268L502,311a1.092,1.092,0,0,0,1.974.5l.656-.926.03-.02.587.819A9.99,9.99,0,0,1,499.769,313Zm7.8-.278a.272.272,0,0,1-.157.05.268.268,0,0,1-.218-.112l-2.323-3.243a.268.268,0,0,0-.438,0l-1.128,1.593a.263.263,0,0,1-.217.114.267.267,0,0,1-.269-.236l-1.019-8.213a.269.269,0,0,1,.267-.3.262.262,0,0,1,.117.028l7.449,3.606a.268.268,0,0,1-.041.5l-1.871.557a.268.268,0,0,0-.143.413l2.323,3.243a.268.268,0,0,1-.062.375Z" transform="translate(-487.182 -290.384)"/></svg>