<svg xmlns="http://www.w3.org/2000/svg" width="25.986" height="25.986" viewBox="0 0 25.986 25.986"><defs><style>.a{fill:#fff;}</style></defs><path class="a" d="M245.234,308.558l5.267-2.939-5.267-3.077Z" transform="translate(-234.181 -292.349)"/><path class="a" d="M245.044,290.384a12.993,12.993,0,1,0,12.994,12.993A12.993,12.993,0,0,0,245.044,290.384Zm8.04,13.658a27.491,27.491,0,0,1-.167,2.8,4.071,4.071,0,0,1-.637,1.719,2.243,2.243,0,0,1-1.608.721c-2.245.194-5.628.194-5.628.194s-4.186-.028-5.461-.166a2.666,2.666,0,0,1-1.774-.749,4.071,4.071,0,0,1-.637-1.719,26.782,26.782,0,0,1-.167-2.8v-1.3a27.646,27.646,0,0,1,.167-2.828,3.7,3.7,0,0,1,.637-1.719,2.239,2.239,0,0,1,1.608-.721c2.245-.166,5.627-.194,5.627-.194s3.383.028,5.628.194a2.128,2.128,0,0,1,1.608.721,4.071,4.071,0,0,1,.637,1.719,27.646,27.646,0,0,1,.167,2.828Z" transform="translate(-232.051 -290.384)"/></svg>