<svg xmlns="http://www.w3.org/2000/svg" xmlns:xlink="http://www.w3.org/1999/xlink" width="429.705" height="375.366" viewBox="0 0 429.705 375.366"><defs><style>.a{fill:#fff;}.b{fill:#3e5588;}.c{fill:#ea3f8d;}.d{fill:#18c0ad;}.e{fill:#ffbb37;}.f{fill:#306eff;}.g{filter:url(#c);}.h{filter:url(#a);}</style><filter id="a" x="0" y="91.431" width="321.16" height="205.561" filterUnits="userSpaceOnUse"><feOffset dx="4" dy="4" input="SourceAlpha"/><feGaussianBlur stdDeviation="1.5" result="b"/><feFlood flood-opacity="0.149"/><feComposite operator="in" in2="b"/><feComposite in="SourceGraphic"/></filter><filter id="c" x="56.38" y="62.821" width="373.325" height="312.545" filterUnits="userSpaceOnUse"><feOffset dx="4" dy="4" input="SourceAlpha"/><feGaussianBlur stdDeviation="1.5" result="d"/><feFlood flood-opacity="0.149"/><feComposite operator="in" in2="d"/><feComposite in="SourceGraphic"/></filter></defs><g transform="translate(-363.279 -1113.447)"><g transform="translate(363.779 1205.378)"><g class="h" transform="matrix(1, 0, 0, 1, -0.5, -91.93)"><rect class="a" width="312.16" height="196.561" transform="translate(0.5 91.93)"/></g><rect class="b" width="49.763" height="49.763" transform="translate(15.154 16.271)"/><rect class="c" width="49.763" height="49.763" transform="translate(73.029 16.271)"/><rect class="d" width="49.763" height="49.763" transform="translate(130.904 16.271)"/><rect class="e" width="49.763" height="49.763" transform="translate(188.779 16.271)"/><rect class="f" width="49.763" height="49.763" transform="translate(246.654 16.271)"/><rect class="b" width="49.763" height="49.763" transform="translate(15.154 73.399)"/><rect class="c" width="49.763" height="49.763" transform="translate(73.029 73.399)"/><rect class="d" width="49.763" height="49.763" transform="translate(130.904 73.399)"/><rect class="e" width="49.763" height="49.763" transform="translate(188.779 73.399)"/><rect class="f" width="49.763" height="49.763" transform="translate(246.654 73.399)"/><rect class="b" width="49.763" height="49.763" transform="translate(15.154 130.527)"/><rect class="c" width="49.763" height="49.763" transform="translate(73.029 130.527)"/><rect class="d" width="49.763" height="49.763" transform="translate(130.904 130.527)"/><rect class="e" width="49.763" height="49.763" transform="translate(188.779 130.527)"/><rect class="f" width="49.763" height="49.763" transform="translate(246.654 130.527)"/></g><g transform="translate(420.159 1176.768)"><g class="g" transform="matrix(1, 0, 0, 1, -56.88, -63.32)"><rect class="a" width="312.16" height="196.561" transform="translate(56.88 186.17) rotate(-23.17)"/></g><rect class="b" width="49.763" height="49.763" transform="translate(20.334 131.838) rotate(-23.174)"/><rect class="c" width="49.763" height="49.763" transform="translate(73.539 109.063) rotate(-23.174)"/><rect class="d" width="49.763" height="49.763" transform="translate(126.745 86.287) rotate(-23.174)"/><rect class="e" width="49.763" height="49.763" transform="translate(179.95 63.512) rotate(-23.174)"/><rect class="f" width="49.763" height="49.763" transform="translate(233.155 40.736) rotate(-23.174)"/><rect class="b" width="49.763" height="49.763" transform="translate(42.816 184.357) rotate(-23.174)"/><rect class="c" width="49.763" height="49.763" transform="translate(96.021 161.581) rotate(-23.174)"/><rect class="d" width="49.763" height="49.763" transform="translate(149.226 138.806) rotate(-23.174)"/><rect class="e" width="49.763" height="49.763" transform="translate(202.431 116.03) rotate(-23.174)"/><rect class="f" width="49.763" height="49.763" transform="translate(255.636 93.255) rotate(-23.174)"/><rect class="b" width="49.763" height="49.763" transform="translate(65.297 236.876) rotate(-23.174)"/><rect class="c" width="49.763" height="49.763" transform="translate(118.503 214.1) rotate(-23.174)"/><rect class="d" width="49.763" height="49.763" transform="translate(171.708 191.324) rotate(-23.174)"/><rect class="e" width="49.763" height="49.763" transform="translate(224.913 168.549) rotate(-23.174)"/><rect class="f" width="49.763" height="49.763" transform="translate(278.118 145.773) rotate(-23.174)"/></g><path class="f" d="M732.255,1199.194h0a13.848,13.848,0,0,1-8.617,8.617h0a13.848,13.848,0,0,1,8.617,8.617h0a13.851,13.851,0,0,1,8.617-8.617h0a13.851,13.851,0,0,1-8.617-8.617Z" transform="translate(-187.438 -44.662)"/><path class="f" d="M708.026,1168.418h0a7.905,7.905,0,0,1-4.918,4.918h0a7.9,7.9,0,0,1,4.918,4.918h0a7.905,7.905,0,0,1,4.918-4.918h0a7.906,7.906,0,0,1-4.918-4.918Z" transform="translate(-176.744 -28.632)"/><path class="f" d="M736.275,1130.2h0a7.9,7.9,0,0,1-4.918,4.918h0a7.9,7.9,0,0,1,4.918,4.918h0a7.9,7.9,0,0,1,4.918-4.918h0a7.906,7.906,0,0,1-4.918-4.918Z" transform="translate(-191.458 -8.724)"/><path class="c" d="M825.865,1208.4a144.3,144.3,0,0,1-22.071-12.212c-.378-.255-.788-.554-.666-1.135a1.333,1.333,0,0,1,.735-.89l5.893-2.925L792.69,1177.9l4.671-3.293a1.345,1.345,0,0,0,.52-.54c.21-.516-.261-1.038-.682-1.4a72.868,72.868,0,0,1-11.892-13.143q12.444,4.789,24.872,9.618a2.628,2.628,0,0,1,.936.589c.8.817.386,1.581-.031,2.233a29.836,29.836,0,0,1-3.95,4.929q7.563,4.664,14.67,10.018a2.057,2.057,0,0,1,.9,1.1c.144.684-.415,1.3-.928,1.774l-4.484,4.173c-.411.383-.861.887-.717,1.43a1.6,1.6,0,0,0,.533.712,51.658,51.658,0,0,1,8.907,10.706,2,2,0,0,1,.424,1.234.511.511,0,0,1-.577.357" transform="translate(-219.559 -23.999)"/><path class="e" d="M904.055,1191.493a144.28,144.28,0,0,1-10.419-22.972c-.151-.43-.3-.915.143-1.308a1.334,1.334,0,0,1,1.121-.275l6.474,1.171-5.732-20.885,5.713.145a1.343,1.343,0,0,0,.739-.122c.476-.289.41-.988.29-1.532a72.9,72.9,0,0,1-1.7-17.644q7.125,11.27,14.215,22.562a2.635,2.635,0,0,1,.4,1.031c.156,1.134-.634,1.5-1.357,1.773a29.863,29.863,0,0,1-6.111,1.6q3.283,8.256,5.79,16.794a2.062,2.062,0,0,1,.066,1.425c-.294.635-1.108.793-1.8.87l-6.088.671c-.558.062-1.22.2-1.428.719a1.6,1.6,0,0,0,0,.889,51.664,51.664,0,0,1,.755,13.906,2,2,0,0,1-.4,1.242.51.51,0,0,1-.676-.057" transform="translate(-275.904 -7.616)"/><path class="d" d="M983.948,1173.707a144.314,144.314,0,0,0,16.138-19.387c.26-.375.534-.8.209-1.3a1.334,1.334,0,0,0-1.009-.562l-6.552-.588,11.066-18.618-5.547-1.375a1.341,1.341,0,0,1-.68-.314c-.383-.405-.134-1.062.126-1.554a72.852,72.852,0,0,0,6.314-16.562q-9.858,8.977-19.688,17.985a2.625,2.625,0,0,0-.659.888c-.451,1.052.214,1.614.838,2.069a29.863,29.863,0,0,0,5.469,3.161q-5.356,7.09-10.037,14.658a2.06,2.06,0,0,0-.441,1.356c.114.691.858,1.059,1.508,1.317l5.693,2.262c.522.207,1.123.514,1.186,1.072a1.6,1.6,0,0,1-.238.857,51.638,51.638,0,0,0-4.416,13.208,2,2,0,0,0,.053,1.3.511.511,0,0,0,.667.124" transform="translate(-320.697)"/></g></svg>