<svg xmlns="http://www.w3.org/2000/svg" width="74.703" height="34.735" viewBox="0 0 74.703 34.735"><defs><style>.a{fill:#f49b25;}.b{fill:#408bcb;}.c{fill:#3571a4;}.d{fill:#f49b26;}</style></defs><g transform="translate(-55.554 -9.219)"><path class="a" d="M817.423,9.219A17.374,17.374,0,0,0,801,20.914h1.019v6.814a3.357,3.357,0,0,0,.335,1.693,1.175,1.175,0,0,0,1.09.557,1.189,1.189,0,0,0,1.083-.535,3.256,3.256,0,0,0,.345-1.715V20.914h1.992v6.968a4.843,4.843,0,0,1-.867,3.1,3.567,3.567,0,0,1-5.111,0,3.339,3.339,0,0,1-.455-.765A17.372,17.372,0,0,0,834,31.794l-.5-2.053h-2.849l-.532,2.207h-2l2.839-10.92h2.282l1.544,5.937c0-.125,0-.251,0-.377A17.368,17.368,0,0,0,817.423,9.219Zm-9.375,11.809h2.368l2.8,6.255V21.028h1.818v10.92h-1.911l-3.262-7.5v7.5h-1.816Zm8.053,0h5.508V23.14h-3.536v2.031h3.277v2.111h-3.277v4.665H816.1Zm6.29,0h3.264a3.617,3.617,0,0,1,1.234.183,2.51,2.51,0,0,1,.892.537,2.757,2.757,0,0,1,.708,1.107,4.709,4.709,0,0,1,.247,1.62,5.758,5.758,0,0,1-.179,1.437,3.585,3.585,0,0,1-.516,1.173,3.344,3.344,0,0,1-1.028.977,2.741,2.741,0,0,1-1.4.33h-1.232v3.557h-1.984Zm1.984,2.038v3.272h.567a3.257,3.257,0,0,0,.831-.088,1.063,1.063,0,0,0,.552-.352,1.439,1.439,0,0,0,.274-.559,3.144,3.144,0,0,0,.088-.8,1.667,1.667,0,0,0-.176-.792,1.1,1.1,0,0,0-.408-.469,1.363,1.363,0,0,0-.6-.191c-.2-.015-.457-.022-.784-.022Zm7.7.757-.945,3.915h1.889Z" transform="translate(-704.533)"/><g transform="translate(55.554 9.301)"><g transform="translate(24.373 11.296)"><g transform="translate(0 0.484)"><path class="b" d="M214.655,131.981a2.32,2.32,0,0,1-.287.261c-.643-.664-1.4-1.4-2.115-1.4-.445,0-.765.339-1.139.578a2.091,2.091,0,0,1-1.84.275,2,2,0,0,1-.883-.606,1.924,1.924,0,0,0,1.74.151,5.023,5.023,0,0,1,1.891-.578A4.136,4.136,0,0,1,214.655,131.981Zm-7.435-2.09c.666.758,1.752.514,2.642.7a1,1,0,0,0,.373.047,2,2,0,0,0-.368-.121c-.69-.26-.8-1-1.175-1.506a11.725,11.725,0,0,1,1.333,1.172,2.236,2.236,0,0,0,1.11.492c-.1.036-.225.027-.33.053a4.172,4.172,0,0,1-2.311.21A2.282,2.282,0,0,1,207.22,129.891Zm-1.068-1.755c.415.941,1.459,1.014,2.153,1.591a1.937,1.937,0,0,0,.408.278l.007-.008a3.028,3.028,0,0,1-.458-.5c-.4-.576-.265-1.364-.571-1.975a4.3,4.3,0,0,1,.7,1.056,3.868,3.868,0,0,0,.922,1.778,7.594,7.594,0,0,1-1.909-.534A2.714,2.714,0,0,1,206.152,128.136Zm-.445-1.9c.06.829.942,1.271,1.363,1.953a1.826,1.826,0,0,0,.313.413,1.5,1.5,0,0,0-.133-.253,1.9,1.9,0,0,1-.162-.978,4.887,4.887,0,0,0,.15-1.261,14.472,14.472,0,0,1,.455,2.608,4.287,4.287,0,0,0,.231.528c-.356-.271-.823-.512-1.214-.82a2.274,2.274,0,0,1-1-2.189Zm.025-1.527a2.652,2.652,0,0,1,.156-.546c-.152.782.368,1.346.545,2.023a5.276,5.276,0,0,0,.193.764c.01.005.018,0,.024-.013a2.224,2.224,0,0,1,.486-1.952,1.659,1.659,0,0,0,.188-.5,3.7,3.7,0,0,1-.09,1.039c-.078.433-.226.839-.343,1.256a1.973,1.973,0,0,0-.017.829l-.037-.03c-.273-.5-.811-.9-.974-1.447A3.109,3.109,0,0,1,205.732,124.706Zm.288-.841a2.4,2.4,0,0,1,.576-1.515c.01-.005.017-.015.03-.013-.38.579-.034,1.309-.083,1.965l-.05.674c.007,0,.007.025.025.017a1.924,1.924,0,0,0,.042-.233,2.612,2.612,0,0,1,.973-1.3.864.864,0,0,0,.211-.313,2.514,2.514,0,0,1-.231.794c-.311.63-.912,1.139-1.021,1.855C206.44,125.106,206.02,124.6,206.02,123.865Zm1-2a1.368,1.368,0,0,1,.661-.443c-.5.341-.469.95-.62,1.459-.055.186-.137.361-.18.553l.013.01a1.636,1.636,0,0,1,.408-.6c.349-.329.873-.528,1.045-1.009a2.224,2.224,0,0,1-1.1,1.57,1.9,1.9,0,0,0-.553.661,2.458,2.458,0,0,0,.013-.519A2.157,2.157,0,0,1,207.022,121.87Zm2.012-1.124a6.934,6.934,0,0,0-.9,1.112,6.535,6.535,0,0,1-.835.764,8.626,8.626,0,0,1,.367-.967A2.535,2.535,0,0,1,209.034,120.746Z" transform="translate(-205.695 -120.746)"/><path class="b" d="M300.915,131.981a2.318,2.318,0,0,0,.287.261c.643-.664,1.4-1.4,2.115-1.4.445,0,.765.339,1.139.578a2.091,2.091,0,0,0,1.84.275,2,2,0,0,0,.883-.606,1.924,1.924,0,0,1-1.74.151,5.022,5.022,0,0,0-1.891-.578A4.136,4.136,0,0,0,300.915,131.981Zm7.435-2.09c-.666.758-1.752.514-2.642.7a1,1,0,0,1-.373.047,2,2,0,0,1,.368-.121c.69-.26.8-1,1.175-1.506a11.725,11.725,0,0,0-1.333,1.172,2.236,2.236,0,0,1-1.11.492c.1.036.225.027.33.053a4.172,4.172,0,0,0,2.311.21A2.282,2.282,0,0,0,308.35,129.891Zm1.068-1.755c-.415.941-1.459,1.014-2.153,1.591a1.936,1.936,0,0,1-.408.278l-.007-.008a3.028,3.028,0,0,0,.458-.5c.4-.576.265-1.364.571-1.975a4.3,4.3,0,0,0-.7,1.056,3.868,3.868,0,0,1-.922,1.778,7.594,7.594,0,0,0,1.909-.534A2.715,2.715,0,0,0,309.418,128.136Zm.445-1.9c-.06.829-.942,1.271-1.363,1.953a1.826,1.826,0,0,1-.313.413,1.5,1.5,0,0,1,.133-.253,1.9,1.9,0,0,0,.162-.978,4.886,4.886,0,0,1-.15-1.261,14.472,14.472,0,0,0-.455,2.608,4.289,4.289,0,0,1-.231.528c.356-.271.823-.512,1.214-.82a2.274,2.274,0,0,0,1-2.189Zm-.025-1.527a2.652,2.652,0,0,0-.156-.546c.152.782-.368,1.346-.545,2.023a5.276,5.276,0,0,1-.193.764c-.01.005-.018,0-.024-.013a2.224,2.224,0,0,0-.486-1.952,1.658,1.658,0,0,1-.188-.5,3.7,3.7,0,0,0,.09,1.039c.078.433.226.839.343,1.256a1.973,1.973,0,0,1,.017.829l.037-.03c.273-.5.811-.9.974-1.447A3.109,3.109,0,0,0,309.838,124.706Zm-.288-.841a2.4,2.4,0,0,0-.576-1.515c-.01-.005-.017-.015-.03-.013.38.579.034,1.309.083,1.965l.05.674c-.007,0-.007.025-.025.017a1.924,1.924,0,0,1-.042-.233,2.612,2.612,0,0,0-.973-1.3.864.864,0,0,1-.211-.313,2.513,2.513,0,0,0,.23.794c.311.63.912,1.139,1.021,1.855C309.13,125.106,309.551,124.6,309.551,123.865Zm-1-2a1.368,1.368,0,0,0-.661-.443c.5.341.469.95.62,1.459.055.186.137.361.18.553l-.013.01a1.635,1.635,0,0,0-.408-.6c-.349-.329-.873-.528-1.045-1.009a2.224,2.224,0,0,0,1.1,1.57,1.9,1.9,0,0,1,.553.661,2.457,2.457,0,0,1-.013-.519A2.157,2.157,0,0,0,308.548,121.87Zm-2.012-1.124a6.937,6.937,0,0,1,.9,1.112,6.532,6.532,0,0,0,.835.764,8.629,8.629,0,0,0-.367-.967A2.535,2.535,0,0,0,306.536,120.746Z" transform="translate(-295.757 -120.746)"/></g><path class="b" d="M252.76,118.976l-.109-.059a4.892,4.892,0,0,1-.9,1.281l-.635-.635a3.971,3.971,0,0,0,.746-1.077l-.108-.059a3.863,3.863,0,0,1-.724,1.05l-.575-.575a3.03,3.03,0,0,0,.584-.866l-.107-.059a2.923,2.923,0,0,1-.563.838l-.635-.635a2.007,2.007,0,0,0,.406-.636l-.107-.059a1.9,1.9,0,0,1-.384.609l-.577-.577a1.07,1.07,0,0,0,.273-.659h.816a1.882,1.882,0,0,1-.128.627l.107.059a2.009,2.009,0,0,0,.141-.685h.9a2.9,2.9,0,0,1-.249,1.118l.107.059a3.024,3.024,0,0,0,.262-1.177h.815a3.824,3.824,0,0,1-.361,1.568l.108.059a3.954,3.954,0,0,0,.374-1.627h.9a4.839,4.839,0,0,1-.485,2.057l.109.059a5.01,5.01,0,0,0,.136-4.048l-.111.048a4.859,4.859,0,0,1,.352,1.763h-.9a3.962,3.962,0,0,0-.28-1.408l-.111.047a3.84,3.84,0,0,1,.27,1.36H251.3a3.028,3.028,0,0,0-.2-1.038l-.111.048a2.909,2.909,0,0,1,.195.991h-.9a2.012,2.012,0,0,0-.122-.635l-.111.047a1.891,1.891,0,0,1,.112.588h-.816a1.07,1.07,0,0,0-.273-.659l.577-.577a1.883,1.883,0,0,1,.4.648l.111-.047a2.005,2.005,0,0,0-.425-.686l.636-.636a2.9,2.9,0,0,1,.616.967l.111-.048a3.022,3.022,0,0,0-.642-1l.576-.576a3.836,3.836,0,0,1,.815,1.258l.111-.047a3.958,3.958,0,0,0-.84-1.3l.636-.636a4.855,4.855,0,0,1,1.031,1.577l.111-.048a5.013,5.013,0,0,0-2.764-2.759l-.044.113a4.856,4.856,0,0,1,1.58,1.033l-.636.636a3.963,3.963,0,0,0-1.272-.83l-.044.112a3.839,3.839,0,0,1,1.231.8l-.576.576a3.026,3.026,0,0,0-.953-.622l-.044.112a2.906,2.906,0,0,1,.912.6l-.636.636a2.01,2.01,0,0,0-.6-.393l-.044.112a1.888,1.888,0,0,1,.564.366l-.577.577a1.07,1.07,0,0,0-.659-.273v-.816a1.886,1.886,0,0,1,.673.146l.044-.112a2.009,2.009,0,0,0-.717-.154v-.9a2.906,2.906,0,0,1,1.046.216l.044-.112a3.026,3.026,0,0,0-1.09-.224v-.815a3.842,3.842,0,0,1,1.387.28l.044-.112a3.961,3.961,0,0,0-1.431-.289v-.9a4.861,4.861,0,0,1,1.76.351l.044-.113a4.992,4.992,0,0,0-4.1.17l.055.1a4.845,4.845,0,0,1,2.118-.513v.9a3.943,3.943,0,0,0-1.7.412l.055.1a3.829,3.829,0,0,1,1.645-.4v.815a3.015,3.015,0,0,0-1.266.305l.055.105a2.9,2.9,0,0,1,1.211-.29v.9a2,2,0,0,0-.793.189l.055.106a1.885,1.885,0,0,1,.738-.174v.816a1.075,1.075,0,0,0-.359.083l.055.105a.961.961,0,1,1-.315.21.958.958,0,0,1,.315-.21l-.055-.105a1.079,1.079,0,0,0-.3.19l-.577-.577a1.891,1.891,0,0,1,.5-.338l-.055-.106a2.02,2.02,0,0,0-.527.359l-.637-.637a2.915,2.915,0,0,1,.747-.521l-.055-.105a3.048,3.048,0,0,0-.776.542l-.577-.577a3.848,3.848,0,0,1,.974-.688l-.055-.1a3.988,3.988,0,0,0-1,.709l-.638-.638a4.874,4.874,0,0,1,1.222-.871l-.055-.1a5.022,5.022,0,0,0-2.244,2.259l.1.056a4.874,4.874,0,0,1,.887-1.255l.638.638a3.983,3.983,0,0,0-.731,1.046l.1.056a3.851,3.851,0,0,1,.711-1.019l.577.577a3.046,3.046,0,0,0-.568.831l.1.056a2.909,2.909,0,0,1,.547-.8l.637.637a2.021,2.021,0,0,0-.389.6l.105.057a1.888,1.888,0,0,1,.369-.568l.578.577a1.074,1.074,0,0,0-.273.659h-.816a1.889,1.889,0,0,1,.143-.668l-.105-.057a2,2,0,0,0-.158.725h-.9a2.9,2.9,0,0,1,.263-1.154l-.1-.056a3.014,3.014,0,0,0-.279,1.211h-.815a3.831,3.831,0,0,1,.374-1.6l-.1-.056a3.943,3.943,0,0,0-.39,1.656h-.9a4.845,4.845,0,0,1,.5-2.085l-.1-.056a5,5,0,0,0-.312,3.608l.118-.03a4.885,4.885,0,0,1-.2-1.317h.9a3.979,3.979,0,0,0,.17,1.1l.117-.029a3.857,3.857,0,0,1-.167-1.067h.815a3.043,3.043,0,0,0,.144.868l.117-.029a2.918,2.918,0,0,1-.141-.838h.9a2.016,2.016,0,0,0,.116.618l.117-.03a1.894,1.894,0,0,1-.113-.589h.816a1.07,1.07,0,0,0,.273.659l-.577.577a1.887,1.887,0,0,1-.4-.648l-.117.03a2,2,0,0,0,.431.7l-.636.636a2.9,2.9,0,0,1-.67-1.119l-.117.029a3.016,3.016,0,0,0,.7,1.175l-.576.576a3.827,3.827,0,0,1-.918-1.551l-.117.029a3.948,3.948,0,0,0,.95,1.607l-.636.636a4.841,4.841,0,0,1-1.186-2.023l-.118.03a5.014,5.014,0,0,0,2.637,3.1l.06-.106a4.869,4.869,0,0,1-1.308-.914l.636-.636a3.97,3.97,0,0,0,1.115.763l.059-.105a3.849,3.849,0,0,1-1.09-.743l.576-.576a3.026,3.026,0,0,0,.916.606l.059-.105a2.907,2.907,0,0,1-.89-.586l.636-.636a2,2,0,0,0,.7.431l.06-.106a1.886,1.886,0,0,1-.676-.409l.577-.577a1.069,1.069,0,0,0,.659.273v.816a1.894,1.894,0,0,1-.561-.1l-.06.106a2.011,2.011,0,0,0,.621.117v.9a2.9,2.9,0,0,1-1.067-.225l-.059.105a3.024,3.024,0,0,0,1.127.24v.815a3.835,3.835,0,0,1-1.529-.342l-.059.105a3.955,3.955,0,0,0,1.588.357v.9a4.849,4.849,0,0,1-2.032-.47l-.06.106a5.006,5.006,0,0,0,4.4-.049l-.057-.11a4.837,4.837,0,0,1-2.132.523v-.9a3.948,3.948,0,0,0,1.72-.42l-.056-.109a3.822,3.822,0,0,1-1.664.409v-.815a3.016,3.016,0,0,0,1.292-.316l-.056-.108a2.894,2.894,0,0,1-1.236.3v-.9a2,2,0,0,0,.824-.2l-.055-.108a1.883,1.883,0,0,1-.769.19v-.816a1.07,1.07,0,0,0,.659-.273l.577.577a1.9,1.9,0,0,1-.467.322l.055.108a2.017,2.017,0,0,0,.5-.345l.635.635a2.921,2.921,0,0,1-.721.507l.056.108a3.036,3.036,0,0,0,.751-.53l.575.575a3.861,3.861,0,0,1-.953.677l.056.109a3.97,3.97,0,0,0,.983-.7l.635.635a4.888,4.888,0,0,1-1.207.862l.057.11a5.017,5.017,0,0,0,2.244-2.279Z" transform="translate(-241.208 -111.809)"/><path class="b" d="M228.974,96.3h-.03v.036h.03Z" transform="translate(-221.629 -92.468)"/><rect class="b" width="0.04" height="0.031" transform="translate(7.27 3.787)"/><path class="b" d="M226.789,94.693l.035.005,0-.03-.035-.005Z" transform="translate(-219.591 -90.917)"/><rect class="b" width="0.035" height="0.031" transform="translate(7.168 3.766) rotate(-172.007)"/><rect class="b" width="0.04" height="0.031" transform="translate(6.878 3.725)"/><path class="b" d="M219.265,94.879l.035.005,0-.03-.035-.005Z" transform="translate(-212.475 -91.093)"/><rect class="b" width="0.042" height="0.031" transform="translate(6.794 3.833) rotate(-166.117)"/><rect class="b" width="0.031" height="0.03" transform="matrix(-0.161, -0.987, 0.987, -0.161, 6.722, 3.87)"/><path class="b" d="M144.336,153.909v-.026h-.025v.051h.04V154h.03l-.005-.077Z" transform="translate(-141.581 -146.929)"/><path class="b" d="M149.129,158.431l-.02.036-.055-.051-.04-.056-.02-.046-.035-.092.075.036.025.072.035.026Z" transform="translate(-145.976 -151.032)"/><path class="b" d="M170.191,186.148l0-.046-.04-.061.06.01.065.056.025.066-.035.02-.02-.031Z" transform="translate(-166.016 -177.344)"/><path class="b" d="M255.97,183.874h-.055l-.01-.112.03-.021v-.056h-.176l-.005-.056.025-.015-.04-.015-.03.041-.01.046-.05.01v.025h-.035v.066l-.141.117-.282-.01c-.02.046-.071-.005-.071-.005-.01-.031-.08,0-.08,0,0,.056-.1-.025-.1-.025l-.176-.128c-.1-.092-.252.026-.257.051.005.072-.116.015-.116.015s-.1-.031-.116.01-.081.031-.081.031l-.01.02-.05.01-.01.031-.06.01.151-.005c.04-.005-.015.087-.04.082l-.07.005-.025.025h-.065l-.03.041-.1-.005s-.055.046-.05.061-.01.061-.025.061-.045.046-.035.061-.03.066-.03.066l-.01.051-.03.01v.138l-.06.041v.061l-.091.1.01.082-.075.082.01.082-.045.015-.01.036-.02.107.05.005c.025-.01.02.066,0,.077s-.076.031-.045.051-.081.015-.081-.015-.06-.056-.075-.046-.04-.046-.04-.046c-.055-.056-.227.005-.227.005l-.025.082c-.055.01-.091.1-.091.1-.045.015-.081.071-.065.087s-.025.02-.025.02v.112l-.025.036,0,.123c.03,0,.025.056.025.056-.05.005-.04.072-.04.072l-.106.036-.02.031-.131-.005-.035.036-.035-.036h-.252l-.01-.026-.05-.01-.005-.056-.075.005-.015.031-.081.005c.005.051-.081.128-.091.107s-.066-.077-.04-.087a.617.617,0,0,1,.091-.021V185.8l-.186-.005-.02.031-.076.005v.082l-.035.01c-.025.015,0,.072,0,.072.035.036,0,.092,0,.092-.03.031.025.087.025.087.04.01-.025.041-.025.041a.092.092,0,0,0,.04.066.052.052,0,0,0,.02.077l0,.087.035.02v.056l.02.036h.081l-.005-.128c-.071-.082.06-.1.065-.072s.06.046.06.046c.01.077.1.123.121.046s.045-.031.06.005a.7.7,0,0,0,.111.123h.076l.01.072c.086-.005.111.005.146.123a.222.222,0,0,0,.131.148l.07-.005c0-.061.07.01.07.041s.136.148.136.148l.136.031.126.1.1-.01h.04c.025-.087.146.005.156.036s.091.082.1.056.065-.01.076.066.045.061.045.061l.287-.005.1-.087.257-.005c.131-.005.05-.184.025-.184-.045-.036.015-.184.015-.184l-.367-.342c-.086,0-.01-.123-.01-.123.065-.041-.015-.107-.015-.107a.229.229,0,0,0-.035-.133.181.181,0,0,1-.065-.179v-.082c-.075-.071.03-.082.03-.082a.085.085,0,0,0-.025-.107l-.005-.066-.081-.01-.01-.24-.181-.26c-.035-.01-.01-.072-.01-.072.045-.026-.01-.087-.01-.087l-.005-.112.106-.01.025-.041h.05l0-.133a.056.056,0,0,1,.086-.031l.07.005.04-.077.01-.061-.055-.005c-.06-.036-.03-.169-.03-.169.1-.143.206-.061.206-.061l.071-.005c.106.071.01.2.01.2a.3.3,0,0,0-.01.128l.025.163-.065.056c-.055.031-.055.1.005.117.04.005.025.1-.035.036-.091,0,.05.082.01.061.091.046.07-.041.07-.041l.121-.1c.045-.036.126.077.126.092a.887.887,0,0,0,.2.005.234.234,0,0,1,.075.128c.055-.072.171-.005.086.036.08.051.08.1.08.1.066-.02.066.031.066.046a.528.528,0,0,0,.02-.077c-.076-.056.1-.077.05.026l-.03.046.05.041,0,.118c.111-.01.081-.148.081-.148l.05-.01c0-.046.035-.02.035-.02-.035-.174.081-.2.081-.2.065-.015.07-.153.07-.153-.045-.02-.02-.092.03-.031s-.03-.123-.03-.123l-.04-.036-.055-.005-.005-.056h-.091l-.015.072-.035.01-.01-.02-.015.056h-.091l-.005-.061.055-.015.02-.031.015-.082h.065l.086-.025c0-.087.05-.066.05-.066l.03.026.045.036.005.031-.03.015,0,.041.015.056h.04a.084.084,0,0,1,.151-.031l.03-.072c-.07-.036,0-.092.019-.066s.067-.066.067-.066.035.046,0-.015a.063.063,0,0,1,.025-.092c-.01-.061.065-.051.065-.051l.005-.082-.071-.005c-.015.072-.075.01-.045-.005a.28.28,0,0,0,.06-.046v-.051l.03-.01.005-.051h.076l.065-.031.015-.026.07-.005.1-.092-.01-.041c-.06,0,0-.046,0-.046l.01-.076Z" transform="translate(-249.067 -179.709)"/><path class="b" d="M292.48,207.183l-.091-.01.005.036h.025a.5.5,0,0,1,.005.245s-.06.005-.07-.026-.035.066-.015.082.091,0,.1.056.045-.036.045-.036v-.347Z" transform="translate(-287.606 -202.007)"/><path class="b" d="M182.345,128.455l-.035-.015,0-.077.03-.005,0-.036-.076.051-.05-.031v.123l.081.107.03-.072Z" transform="translate(-177.44 -122.753)"/><path class="b" d="M183.937,134.129v-.051l-.035.005-.005.041Z" transform="translate(-179.022 -128.197)"/><path class="b" d="M183.059,138.923v-.036l-.043.005v.036Z" transform="translate(-178.19 -132.745)"/><path class="b" d="M295.7,222.19a.022.022,0,1,0-.021-.022A.021.021,0,0,0,295.7,222.19Z" transform="translate(-290.773 -216.169)"/><ellipse class="b" cx="0.021" cy="0.022" rx="0.021" ry="0.022" transform="translate(4.942 6.084)"/><ellipse class="b" cx="0.021" cy="0.022" rx="0.021" ry="0.022" transform="translate(4.943 5.501)"/><path class="b" d="M209.956,113.566l-.04.01-.091.087,0,.041-.025.036-.03.077-.106.005-.02.092.015.077.091.036.01-.051.03-.015.005-.051.02-.036.03-.036.01-.041.05-.031.061-.01.025-.031.01-.061,0-.046.022-.031.06-.026v-.1h-.03l0-.036-.056-.005-.01.026h-.025l-.005.041h.03l0,.031-.02.02Z" transform="translate(-203.37 -108.661)"/><path class="b" d="M323.029,203.2v-.072l-.01-.066-.075-.036-.055.051-.01.072v.046l-.05.01-.01.138-.04.015.005.051-.055.015-.055.015-.01.066-.04.026-.02.061-.025.148s.045.087.07.046a.1.1,0,0,1,.065-.046l.015-.036.136.005c.01-.056.076-.036.076-.01s.05.005.05.005l.035-.056h.055l.005-.061.025-.015v-.092a.1.1,0,0,0,.07-.1l.02-.026-.01-.036c-.04-.015-.02-.051.005-.041s-.035-.046-.035-.046c-.03.026-.055-.031-.055-.031Z" transform="translate(-316.212 -198.084)"/><path class="b" d="M329.438,217.017c-.005.061-.081.082-.081.082l-.055-.015-.03-.026-.005-.072.045-.005.01.031Z" transform="translate(-322.54 -211.284)"/><path class="b" d="M336.478,209.2c.011.045.01-.072.03-.066s.005-.071.005-.071l-.091.066C336.468,209.135,336.473,209.181,336.478,209.2Z" transform="translate(-329.309 -203.795)"/><path class="b" d="M341.58,206.346c.02.046.015.112.091.164.025.017-.015.051-.04.036a.764.764,0,0,1-.1-.128v-.066C341.549,206.31,341.571,206.326,341.58,206.346Z" transform="translate(-334.143 -201.206)"/><path class="b" d="M231.234,148.6l-.035.026.015.015.015.026.035-.056Z" transform="translate(-223.762 -141.931)"/><line class="c" y2="0.061" transform="translate(7.31 6.612)"/><path class="b" d="M242.032,145.3l.04-.026-.016-.026-.04.025Z" transform="translate(-233.994 -138.765)"/><path class="b" d="M380.354,245.42l.045.02.005.087c.06.061.257.01.257-.005s-.01-.189-.01-.189l-.025-.026,0-.128c.02-.066-.1-.163-.106-.143s-.076.005-.076.025-.04.123-.02.158-.015.036-.02.072S380.344,245.389,380.354,245.42Z" transform="translate(-370.859 -237.817)"/><path class="b" d="M377.1,248.159c-.01.039-.045.061-.065.046s.025.025.035.046a.028.028,0,0,0,.05,0c.01-.021.005-.066.015-.087S377.105,248.138,377.1,248.159Z" transform="translate(-367.716 -240.76)"/><rect class="b" width="0.035" height="0.097" transform="translate(9.15 6.461)"/><path class="b" d="M383.585,212.073c-.022-.03.1-.082.121-.02s0,.051-.02.046S383.615,212.114,383.585,212.073Z" transform="translate(-373.913 -206.596)"/><path class="b" d="M274.363,114l-.005.03.055.01.005-.03Z" transform="translate(-264.584 -109.203)"/><path class="b" d="M270.364,114.815l-.015.008-.037.021-.033-.021-.016.026.04.026.008,0,.008,0,.03-.017,0,.009.028-.011-.01-.026Z" transform="translate(-260.711 -109.977)"/><path class="b" d="M380.268,177.539h-.076s.025.01-.045-.056a.069.069,0,0,0-.116.015l-.081.01v.082l-.04.015.005.051.055-.005s0,.061.015.036.141.005.131.066c0,.025.126.092.111.174a.061.061,0,0,1,.05.077l.086.01.025-.051.025.005v-.031l-.055-.015-.01-.163-.035-.026.01-.041-.04-.015.02-.066Z" transform="translate(-370.441 -173.901)"/><path class="b" d="M387.248,188.507l-.04-.005-.091.015-.05.1a.147.147,0,0,1,.045.051c.02.036.03.245-.03.281s.005.015.005.015l-.01.112c.015.051.04.026.055,0s.03-.031.05-.056a.273.273,0,0,0,.055-.107c0-.036.03-.092.015-.107s.015-.087.015-.087a.1.1,0,0,0,0-.082.11.11,0,0,1,.02-.107l-.04-.02Z" transform="translate(-377.199 -184.348)"/><rect class="b" width="0.041" height="0.03" transform="translate(10.11 4.368) rotate(-82.823)"/><rect class="b" width="0.03" height="0.034" transform="translate(10.108 4.509) rotate(-153.599)"/><path class="b" d="M388.36,178.6l-.02-.046a.183.183,0,0,1,.01-.061c.01-.02-.02-.041-.035-.046s-.01-.046-.015-.066-.04-.036-.04-.036-.01-.077-.01-.092-.045-.036-.03-.051a.375.375,0,0,1,.04-.046c.015-.01-.015-.082.01-.066s.025.041.035.061-.005.092.02.107-.005.066.035.066.015.1.015.1-.01.071.015.077.01.128.01.128l-.04-.026Z" transform="translate(-378.296 -174.5)"/><path class="b" d="M384.838,172.189c.015.02.045.036.045.056s-.01.036.02.041.05-.005.06.02a.173.173,0,0,1,.005.087c-.005.02.005.051.03.051s.03.005.03.02.03-.056.03-.056a.214.214,0,0,1-.045-.066.807.807,0,0,1-.025-.082c0-.01-.035-.02-.05-.026s-.04-.051-.04-.051l-.06.005Z" transform="translate(-375.101 -168.914)"/><path class="b" d="M383.127,168.21a.143.143,0,0,0-.05-.046.122.122,0,0,0-.055-.02.033.033,0,0,1-.03-.046c.01-.026-.015-.036-.015-.056s.015-.02.04-.005.02.02.04.046.03.051.05.046.035.046.055.031.015.036.015.036Z" transform="translate(-373.34 -164.98)"/><path class="b" d="M372.257,174.6c.028.028-.151.02-.151,0s.015-.092.06-.077.05-.092.05-.092-.04.005,0-.015,0-.051-.015-.066a.262.262,0,0,1-.03-.041h.071c.03-.02.04-.117.04-.117a.079.079,0,0,0,.091-.02.212.212,0,0,0,.03.056c.02.025-.05.036-.025.051a.07.07,0,0,1,.025.077c-.01.015-.066.005-.066-.015s-.02.026,0,.051-.025.061-.035.061-.075.01-.02.041a.175.175,0,0,0,.116.015s.045-.005.06.02-.005.031-.03.031-.146-.01-.146-.01S372.242,174.58,372.257,174.6Z" transform="translate(-363.059 -170.788)"/><path class="b" d="M368.648,182.849c.025-.005.086-.01.1.005s-.035.036-.035.036l-.06.01C368.628,182.874,368.623,182.854,368.648,182.849Z" transform="translate(-359.772 -178.996)"/><path class="b" d="M380.936,173.412c.04-.02.126-.02.121-.051s.05-.041.05-.041l.015.061.045.031.005.056s.015-.01-.04.005-.02.041-.02.041l-.121.005-.015-.051Z" transform="translate(-371.411 -169.988)"/><path class="b" d="M376.166,167.07c.031,0-.01.117.07.107s.005.036.065.041.045-.046.065-.082.01-.056-.025-.066-.035-.01-.045-.051a.074.074,0,0,0-.05-.051l-.015-.061-.065.041-.065.087C376.1,167.1,376.136,167.07,376.166,167.07Z" transform="translate(-366.837 -163.922)"/><rect class="b" width="0.034" height="0.031" transform="translate(9.462 3.58) rotate(-63.602)"/><rect class="b" width="0.03" height="0.036" transform="translate(9.41 3.531)"/><rect class="b" width="0.046" height="0.03" transform="translate(9.435 2.85) rotate(83.695)"/><rect class="b" width="0.03" height="0.026" transform="translate(9.349 3.327)"/><rect class="b" width="0.031" height="0.051" transform="matrix(-0.097, -0.995, 0.995, -0.097, 9.27, 3.326)"/><rect class="b" width="0.03" height="0.039" transform="translate(8.855 3.818) rotate(-156.958)"/><rect class="b" width="0.031" height="0.051" transform="matrix(-0.097, -0.995, 0.995, -0.097, 8.697, 3.725)"/><path class="b" d="M236.407,94.094l-.111.005v.031l.111-.005Z" transform="translate(-228.584 -90.378)"/><rect class="b" width="0.047" height="0.03" transform="matrix(-0.214, -0.977, 0.977, -0.214, 7.639, 3.759)"/><rect class="b" width="0.031" height="0.016" transform="translate(7.617 3.791) rotate(-108.225)"/><path class="b" d="M350.271,179.958l-.005.036.055.005s.025.02.025.036.035.031.055.031a.252.252,0,0,0,.076-.041s.025-.072.005-.066-.06.036-.065.005-.065-.015-.065-.015l-.081.01Z" transform="translate(-342.402 -176.253)"/><path class="b" d="M354.976,177.758c0,.015-.01.036.02.041s.086-.02.091.01.005.051.045.066a.248.248,0,0,0,.1.02.907.907,0,0,0,.1-.01.268.268,0,0,1,.086.026q.083.084.106.046c.015-.026-.005-.082-.01-.1s-.076-.118-.1-.1-.03,0-.076.015-.141.005-.146-.015-.076-.031-.076-.051-.05-.046-.045-.015-.035.046-.045.036S354.976,177.758,354.976,177.758Z" transform="translate(-346.856 -174.109)"/><path class="b" d="M364.854,151.283l.035-.112c-.05-.01-.04-.066-.04-.066-.005-.046-.075-.1-.1-.082s-.015-.107-.015-.107.045-.031.065-.015-.171-.255-.211-.23-.131-.026-.126-.072-.181-.2-.181-.2-.06-.041-.07-.01-.03.051,0,.066.025-.026.06.01.1.082.076.112a.137.137,0,0,1-.055.041l.035.041h.055l.01.087s.06.031.076.066.015.056,0,.077a.141.141,0,0,0-.04.092.074.074,0,0,0,.045.051l.04.005.03.015v.066c.04-.01.106.046.1.082s.01.015.06.051.035.041.071.066.065.01.08-.036Z" transform="translate(-355.575 -148.289)"/><path class="b" d="M360.6,152.572c-.005-.02-.015-.092.015-.087s.01,0,.045.015.04-.026.04-.026h.055l.07.056-.01.046-.05.005c-.025-.041-.076-.025-.065.01a.12.12,0,0,1-.045.107c-.02.005-.086.005-.081-.025s.025-.1.025-.1Z" transform="translate(-352.155 -150.272)"/><path class="b" d="M353.976,145.891v-.041s-.005-.041-.03-.041-.07-.031-.06-.051-.086-.041-.086-.041-.086-.082-.055-.071.015-.036.015-.036a.308.308,0,0,1-.076.005c-.015-.005-.01-.051-.01-.051s-.06-.015-.06,0,.02.015.03.046.005.082.05.092.055.02.06.041.06.026.06.026l.04.02Z" transform="translate(-345.568 -143.729)"/><path class="b" d="M238.13,54.912l-.015-.041-.04-.01v.046Z" transform="translate(-230.266 -53.271)"/><path class="b" d="M349.761,137.3c-.053-.04.07.031.07.031a.064.064,0,0,1,.065.046c0,.015.055.01.055.01l.005-.036-.04-.051-.035-.025s-.055-.005-.055-.02-.045.061-.065.046Z" transform="translate(-341.912 -135.876)"/><path class="b" d="M365.995,137.278c-.015.045-.02.107-.045.107s-.015.066-.015.066a.617.617,0,0,1,.086.005c.02.005.02.056.02.056.076-.005.106.1.1.123s.03.026.03.026a.425.425,0,0,1-.01.1c-.01.02.065.036.086.066a.173.173,0,0,1-.025.138c-.015.005.04.02.035.046s.015,0,.02.041.015.128.015.128l.07.005c.01-.066.14-.069.161-.061a.3.3,0,0,1,.151.194c0,.031-.055.036-.055.036l.01.148c.086.026.156.148.146.169s.06.015.06.015c.01-.092.1-.061.1-.031s.02.1.02.1l.025.046.035.036.055-.005.015.031.065.01a.559.559,0,0,1,.06.077c.005.015.081.01.1.015s.05.02.055.046a.238.238,0,0,0,.035.066s.06.015.065.036a.436.436,0,0,0,.03.066l.05.041.005.046.055.005.015.061.091-.005.05-.036a.265.265,0,0,0,.116-.1c0-.02.015-.1.065-.082s.015-.112.015-.112-.07-.051-.065-.077-.07-.077-.065-.1-.065-.061-.06-.082-.035-.077-.035-.077l-.076-.071-.01-.046-.06-.005-.121-.148.005-.041-.035-.005v-.056l-.035-.02-.055-.005-.111-.123-.01-.056h-.055l.01-.107a.19.19,0,0,0,.015-.133s-.071.036-.106.02.015-.051.015-.051v-.041l-.03-.031s-.086.01-.091-.005-.02-.082-.02-.082l-.005-.087-.035-.015-.005-.031-.055.005v-.061l-.03-.01-.03-.015-.005-.061-.111-.005-.035-.051-.04-.061-.126-.01-.03-.031-.05-.01-.035-.015-.015.026-.1.005,0,.031C366.2,137.283,366,137.263,365.995,137.278Z" transform="translate(-357.22 -135.821)"/><path class="b" d="M376.837,135.254c-.008-.04.1-.077.126-.046a.206.206,0,0,1,.106.189c0,.055-.091-.056-.091-.056l-.076-.026a.081.081,0,0,1-.065-.061Z" transform="translate(-367.533 -133.929)"/><rect class="b" width="0.03" height="0.05" transform="translate(7.827 1.387) rotate(-156.187)"/><path class="b" d="M337.4,124.042l-.066-.066v-.056l-.02-.02-.02-.071-.065-.02-.065.025-.07.046-.075.01-.04.046.161.015.03.051.116.01.075.077C337.426,124.108,337.441,124.077,337.4,124.042Z" transform="translate(-329.834 -123.157)"/><path class="b" d="M343.92,121.987c-.011-.045-.076.056-.01.077a.244.244,0,0,0,.131,0l.015-.031.252.005a.148.148,0,0,0,.03-.051.183.183,0,0,1,.086-.01c.025.01.005-.071-.02-.061a.212.212,0,0,1-.075.005h-.091c0-.036-.086-.02-.091,0s-.035.026-.035.026l-.116.01C343.986,121.987,343.925,122.008,343.92,121.987Z" transform="translate(-336.363 -121.353)"/><path class="b" d="M334.687,135.92c.077.025.106.006.111-.014s.01-.026.04-.031-.005-.066-.035-.061a.055.055,0,0,1-.065-.036c-.005-.026-.055-.092-.06-.041s-.035.051-.03.087S334.666,135.914,334.687,135.92Z" transform="translate(-327.628 -134.423)"/><path class="b" d="M324.716,140.233c0-.018.1-.02.116-.005s.005.041.05.041.025.031.02.046-.055.01-.06-.005-.081-.021-.081-.021S324.721,140.258,324.716,140.233Z" transform="translate(-318.236 -138.679)"/><path class="b" d="M243.631,33.985l-.04.032-.026-.026-.021.022.035.036.01.01.01-.009.051-.041Z" transform="translate(-235.439 -33.526)"/><path class="b" d="M239.183,31.734l-.032-.02-.016.026.04.025.008.005.008-.005.056-.036-.016-.026Z" transform="translate(-231.268 -31.368)"/><path class="b" d="M235.967,51.564h-.007l-.05-.005,0,.031.043,0,.031.05.025-.016-.035-.056Z" transform="translate(-228.215 -50.147)"/><path class="b" d="M317.462,164.262l.005.056h.075c.03,0-.025-.036-.025-.036S317.457,164.288,317.462,164.262Z" transform="translate(-311.375 -161.421)"/><rect class="b" width="0.03" height="0.04" transform="translate(6.183 2.843) rotate(-50.396)"/><rect class="b" width="0.03" height="0.043" transform="translate(5.266 1.887) rotate(-44.951)"/><path class="b" d="M217.012,181.288l-.05-.026-.014.027.032.016-.01.011.022.022.025-.026.015-.015Z" transform="translate(-210.284 -172.825)"/><path class="b" d="M209.8,174.53l-.019-.024-.03.026-.015.013.016.012.035.026.018-.025-.019-.014Z" transform="translate(-203.466 -166.435)"/><path class="b" d="M390.351,242.689a.062.062,0,0,0-.039-.038l-.01.029h0l.009.005.006.026-.007.009.022.021A.057.057,0,0,0,390.351,242.689Z" transform="translate(-380.269 -235.564)"/><path class="b" d="M280.03,154.4l-.049,0,0-.046.049.008Z" transform="translate(-269.902 -147.375)"/><path class="b" d="M413.273,233.916c.022-.014.049-.038.045.019s-.026.038-.045.057S413.243,233.935,413.273,233.916Z" transform="translate(-401.978 -227.285)"/><path class="b" d="M417.706,229.53a.044.044,0,0,1,0-.007.083.083,0,0,0-.008-.032l-.027.014a.059.059,0,0,1,0,.021.033.033,0,0,0,.01.026.024.024,0,0,0,.02,0l-.006-.03A.009.009,0,0,1,417.706,229.53Z" transform="translate(-406.155 -223.116)"/><path class="b" d="M417.087,230.546c.008.031.019.062.019.063l.028-.011a.616.616,0,0,1-.018-.06Z" transform="translate(-405.603 -224.107)"/><path class="b" d="M414.524,232.849l-.03,0c0,.024,0,.054.027.059l.006-.03h0a.045.045,0,0,1,0-.026Z" transform="translate(-403.15 -226.29)"/><path class="b" d="M410.956,221.221a.028.028,0,0,0-.017-.021.1.1,0,0,0-.078.019l.017.026a.081.081,0,0,1,.05-.016v0Z" transform="translate(-399.715 -215.271)"/><path class="b" d="M324.475,182.5a.163.163,0,0,1-.065.031l-.015.056-.025.02a.128.128,0,0,1,0,.051c-.005.036-.05.056-.05.056l-.02.026a.932.932,0,0,1-.136,0,.04.04,0,0,1,.015-.077c.03.005-.005-.087-.005-.087l.04-.005s0-.092.02-.092,0-.031-.025-.046-.045-.066-.065-.061a.653.653,0,0,1-.1,0l-.015.031-.055.01s0,.04,0,.051c-.03.036-.146.112-.1-.015l.015-.031v-.046l-.091-.005s-.045-.015-.045-.036a.285.285,0,0,0-.005-.046l-.106-.118-.126-.015-.01-.026-.075-.01c-.091-.046-.171-.005-.156.072s.04.107-.01.107a.059.059,0,0,1-.06-.041s-.04-.015-.04.005-.015.061,0,.082-.02.051-.035.036-.055-.061-.045-.077-.071-.112.01-.128-.005-.061.025-.071l.04-.02h.04l.025-.02-.065-.01-.04-.005-.076-.005a.214.214,0,0,0-.091.112c-.04.077-.136-.031-.1-.072s-.111-.005-.136.015-.1.01-.1.01c-.015.046-.086-.005-.065-.036a.1.1,0,0,0,.02-.051l-.025-.005-.03.056c-.07,0-.091.041-.076.066s-.02-.005-.03.031.005.036.035.051-.015.015.005.041.081,0,.045.036a.131.131,0,0,1-.106.02c-.005.046-.1.036-.111.02s-.086-.107-.086-.107l-.1-.005c-.01-.071.045-.036.065-.092a.814.814,0,0,0,.03-.148s-.081-.005-.086.02-.055.041-.055.041-.04.015-.025.036-.03.031-.03.031.008.033-.005.046c-.04.041-.141.005-.156-.01l-.06-.026-.06-.041-.07.031-.02.02h-.076l-.005.061.136.015.01.126-.055-.019H321.6l-.015-.031-.03-.005v.112l.03.026.025.025.05.005.01.061.126.005.015.025.076.005.146.148-.01.046-.025.015c.01.036-.065.015-.065.015v.031l.035.005.035.02.05-.087c.055-.036.08.015.086.046s-.025.026-.025.026v.072l.03.01a.06.06,0,0,1-.02.1l-.015.051c-.015.046-.07.036-.07.036l-.02.031-.06.015.12.015c.011-.041.041-.051.057-.031a.112.112,0,0,1,.015.056l.03.005-.005.056.03.01v.163l.035.041c.06-.025.06.015.03.036s-.01.112-.01.112l-.025.026v.041l-.03.02v.056a.132.132,0,0,0-.126,0c-.045-.031-.141-.02-.141.005.03.041-.035.051-.035.051l-.035.041c.025.051-.025.056-.025.056v.1l-.06.056.005.133c0,.036.075.041.091.02s.076.041.076.041h.045l.01-.092-.03-.015v-.148l.05-.056c.06-.02.04.133.04.148.005.056.03.051.055.041.05-.02.01.056-.03.051s-.015.051-.015.051l.025.01-.045.036-.04.046-.05-.015-.06-.005-.02-.036-.035-.005-.005.071-.025.031-.06.061c.081,0-.01.056-.03.056.045.015-.005.061-.121.026v.036l-.04.005.035.041.04.005-.015.087c0,.066-.166.02-.181.005l-.005.092-.03.005.005.061-.005.087.055-.01v.036l.136.005.2-.21.116-.025c.01-.051.06.01.06.01.05-.005.06.031.06.031l.065.01c.055.015.022.021.025.041s.03.02.03.02l.01-.066.03.005-.03-.036-.055-.026-.06-.026c-.04-.056.01-.046.05-.041h.065a.559.559,0,0,1,.076.128c0,.026.035.031.035.031l.045-.005.015.036h.045l.015.031h.091l.005-.046-.086-.015,0-.051-.06-.015c-.02-.087.015-.112.04-.071l.03.005-.01-.077.035-.01-.01-.107-.03-.01v-.036l.126.005a.178.178,0,0,1,.005-.1h.035l.005.026.154.015.109-.125c-.005-.01.011-.015,0-.028s-.035,0-.061-.015,0-.1,0-.123.086-.051.071-.005,0,.066,0,.066a.066.066,0,0,1,.116.02c-.005.015.035.031.06.015s.055.046.045.077-.1.026-.106-.005-.02-.02-.03-.005a.073.073,0,0,1-.081.01.024.024,0,0,1-.009-.008l-.109.125h.007c.06.036.03.082.01.092a.154.154,0,0,1-.055.01l-.01.02-.131.01-.01.051a.072.072,0,0,0-.075.1.085.085,0,0,1,0,.066l.055.026.07-.02c.01-.051.055-.061.1-.092s.106.056.086.1a.157.157,0,0,0-.02.056l0,.046-.05.02-.04.02-.005.026h-.136l-.025.025-.065.005-.02.031-.045.005s-.076.036-.045.077-.126.036-.161-.02c-.01.051-.065.005-.065.005l-.055-.015-.005-.077c-.01-.051-.106-.051-.1-.015s-.181.015-.181.015l-.06.029-.055.032,0,.025-.091.01-.04.02-.015-.031h-.04l-.04.056c-.106.005-.206.066-.2.092s-.04.051-.04.051l-.045.015-.03.046-.06.02-.01.107-.03.02v.046l-.035.01v.026l-.05.005.03.077.04.02c.07.01.04.1.04.1l.04.005.02.056.04.082c.015.061.06.046.081.041s.04.061.04.061l.2.005s-.01.02.025.031a1.022,1.022,0,0,0,.277.005c-.01-.046.126-.056.181-.015a.158.158,0,0,0,.131.015l.076.092.05.112.086.026.06.015.02.087.045.005.015.056c.055.041-.015.128-.015.128v.112l.04.02-.005.041.066.066.076.005.191.2.151.046.025.082.04-.005.03-.025.121-.005.06-.056.065-.01.559-.475-.05-.031v-.112c.091-.066.1-.184.01-.194-.065-.008-.035-.077.025-.087l.035-.015v-.046l.116-.107v-.082l-.252-.21c-.111-.041,0-.286.075-.281s0-.378,0-.378l-.04-.02.01-.123h-.055l-.091.118-.025.082c-.01.107-.322.087-.337.072a.885.885,0,0,0-.121-.061s-.081-.066-.1-.046-.086-.026-.086-.01-.065-.036-.065-.036l-.1-.036.076-.015-.015-.061.131.066c.015.02.081.015.081.015l.02.026a.078.078,0,0,1,.066.025c.025.031.156.005.156.005l.035.031.055.02.156.005.005-.1.03-.031-.005-.061.035-.031v-.051l.03-.01.005-.112.025-.005v-.245l-.076-.072c-.005.026-.086.026-.086.026s-.02.036-.035.036.02.046.01.077-.05.031-.05.031l-.076.02-.02.026h-.081l-.01-.066.091-.026.05-.025.025-.051c.005-.051.065-.046.065-.046s.116-.1.121-.143.045-.174.116-.174h.131c.05-.02.035-.087.035-.087l.065-.01.01.036s.091.01.1-.005.03-.051.055-.036.106-.036.106-.036c.005-.036.131-.02.131-.02l.015-.046s-.086-.118-.1-.118-.1-.072-.106-.046c-.08-.02-.075-.133-.075-.133l-.03-.071c0-.041-.075-.128-.091-.118a.072.072,0,0,1,0-.128c.02-.005.071-.077.071-.077l.025-.072.086-.025.01-.066-.045-.005s.05-.092.075-.092a1.321,1.321,0,0,0,.206-.01.286.286,0,0,0,.045-.107c0-.015.04-.02.055-.026a.193.193,0,0,0,.06-.066C324.53,182.612,324.5,182.484,324.475,182.5Z" transform="translate(-314.628 -178.187)"/><path class="b" d="M332.992,222.831c.008-.008.015.023.03.019s.023.027.008.027-.015.019-.015.027a.055.055,0,0,1-.011.038c-.011.012-.023,0-.038,0a.074.074,0,0,0-.042-.008c-.019,0,0,.031,0,.031s-.079,0-.064-.015.03-.015.019-.023,0-.015,0-.031.038-.008.026-.019,0-.056.019-.031l.011-.027c-.011-.011,0-.015-.026-.023s0-.054,0-.054l0-.031c.008-.038.083-.042.087-.008a.235.235,0,0,1,0,.057l.023.008s0,.023-.023.023,0,.011-.011.023l.011.019Z" transform="translate(-325.933 -216.672)"/><path class="b" d="M330.8,224.52c.011-.023.038-.123.068-.092s.049,0,.049,0a.049.049,0,0,1,.008.046c-.008.031-.015.061-.034.065s-.034.015-.056.019S330.8,224.52,330.8,224.52Z" transform="translate(-323.99 -218.322)"/></g><path class="d" d="M303.023,271.305a3.8,3.8,0,1,1-3.8-3.8A3.8,3.8,0,0,1,303.023,271.305Z" transform="translate(-281.61 -254.02)"/><path class="d" d="M303.023,271.305a3.8,3.8,0,1,1-3.8-3.8A3.8,3.8,0,0,1,303.023,271.305Z" transform="translate(-295.427 -267.507)"/><path class="d" d="M303.023,271.305a3.8,3.8,0,1,1-3.8-3.8A3.8,3.8,0,0,1,303.023,271.305Z" transform="translate(-295.427 -254.02)"/><path class="d" d="M303.023,271.305a3.8,3.8,0,1,1-3.8-3.8A3.8,3.8,0,0,1,303.023,271.305Z" transform="translate(-295.427 -240.717)"/><path class="d" d="M303.023,271.305a3.8,3.8,0,1,1-3.8-3.8A3.8,3.8,0,0,1,303.023,271.305Z" transform="translate(-281.61 -240.717)"/><path class="d" d="M303.023,271.305a3.8,3.8,0,1,1-3.8-3.8A3.8,3.8,0,0,1,303.023,271.305Z" transform="translate(-267.793 -240.717)"/><path class="d" d="M303.023,271.305a3.8,3.8,0,1,1-3.8-3.8A3.8,3.8,0,0,1,303.023,271.305Z" transform="translate(-267.793 -267.507)"/><path class="d" d="M303.023,271.305a3.8,3.8,0,1,1-3.8-3.8A3.8,3.8,0,0,1,303.023,271.305Z" transform="translate(-281.61 -267.507)"/></g></g></svg>