<svg xmlns="http://www.w3.org/2000/svg" xmlns:xlink="http://www.w3.org/1999/xlink" width="11.328" height="24.358" viewBox="0 0 11.328 24.358"><defs><style>.a{fill:#fff;}.b{clip-path:url(#a);}</style><clipPath id="a"><rect class="a" width="11.328" height="24.358"/></clipPath></defs><g class="b" transform="translate(0 0)"><path class="a" d="M0,8.011v4.213H2.521V24.358H7.535V12.208c1.023,0,1.984-.013,2.943,0,.34.007.452-.1.464-.44.018-.486.1-.973.155-1.456.077-.753.15-1.506.231-2.326H7.518V6.119c0-.213,0-.426.011-.636C7.6,4.6,7.97,4.245,8.87,4.209c.358-.015.717,0,1.076,0h1.343V.007c-1.129,0-2.233-.019-3.337.007a11.324,11.324,0,0,0-1.694.17A4.1,4.1,0,0,0,2.613,4.1c-.1,1.112-.078,2.243-.107,3.365v.544Z" transform="translate(0 0)"/></g></svg>