<svg xmlns="http://www.w3.org/2000/svg" xmlns:xlink="http://www.w3.org/1999/xlink" width="22" height="22" viewBox="0 0 22 22"><defs><style>.a{fill:#3c3f47;}.b{clip-path:url(#a);}</style><clipPath id="a"><rect class="a" width="22" height="22" transform="translate(-0.049 0)"/></clipPath></defs><g transform="translate(0.049 0)"><g class="b" transform="translate(0 0)"><path class="a" d="M16.071,21.945H5.871A5.879,5.879,0,0,1,0,16.072V5.873A5.878,5.878,0,0,1,5.871,0h10.2a5.887,5.887,0,0,1,5.874,5.873v10.2a5.887,5.887,0,0,1-5.874,5.873M5.871,1.731A4.146,4.146,0,0,0,1.731,5.873v10.2a4.146,4.146,0,0,0,4.141,4.142h10.2a4.146,4.146,0,0,0,4.142-4.142V5.873a4.147,4.147,0,0,0-4.142-4.142Zm5.1,16.108a5.713,5.713,0,1,1,5.712-5.714v0a5.719,5.719,0,0,1-5.712,5.712m0-9.695a3.981,3.981,0,1,0,3.981,3.982h0a3.985,3.985,0,0,0-3.981-3.98Zm7.041-2.639a1.5,1.5,0,1,0-1.5,1.5,1.5,1.5,0,0,0,1.5-1.5Z" transform="translate(0 0)"/></g></g></svg>