<svg xmlns="http://www.w3.org/2000/svg" width="25.985" height="25.986" viewBox="0 0 25.985 25.986"><defs><style>.a{fill:#fff;}</style></defs><path class="a" d="M205.691,297.637q-3.754-.079-7.512,0a3.038,3.038,0,0,0-3.228,3.171q-.1,3.731,0,7.466a3.058,3.058,0,0,0,3.228,3.175c1.243.046,2.488.008,3.733.008,1.26,0,2.521.038,3.78-.008a3.074,3.074,0,0,0,3.233-3.222q.086-3.684,0-7.372A3.055,3.055,0,0,0,205.691,297.637Zm-3.782,11.281a4.375,4.375,0,1,1,4.376-4.376A4.375,4.375,0,0,1,201.909,308.918Zm4.631-7.909a1.041,1.041,0,1,1,1.04-1.04A1.041,1.041,0,0,1,206.541,301.009Z" transform="translate(-188.916 -291.55)"/><circle class="a" cx="2.869" cy="2.869" r="2.869" transform="translate(10.124 10.124)"/><path class="a" d="M200.756,290.384a12.993,12.993,0,1,0,12.993,12.993A12.992,12.992,0,0,0,200.756,290.384Zm8.523,16.961a4.425,4.425,0,0,1-4.37,4.423c-2.753.1-5.516.1-8.269,0a4.5,4.5,0,0,1-4.377-4.435c-.014-.215-.06-.429-.092-.644v-6.623c.057-.4.1-.807.173-1.2a4.419,4.419,0,0,1,4.3-3.876c2.753-.095,5.516-.1,8.269,0a4.425,4.425,0,0,1,4.37,4.423Q209.4,303.373,209.279,307.345Z" transform="translate(-187.763 -290.384)"/></svg>