<svg xmlns="http://www.w3.org/2000/svg" width="30.714" height="50.325" viewBox="0 0 30.714 50.325"><defs><style>.a{fill:#ea3f8d;}.b{fill:#ffbb37;}</style></defs><g transform="translate(-2603.888 1476.665)"><path class="a" d="M2640.99-1420.675a122.141,122.141,0,0,1-16.451-13.605c-.275-.271-.569-.583-.377-1.048a1.128,1.128,0,0,1,.75-.625l5.358-1.512-12.112-13.758,4.4-2.011a1.139,1.139,0,0,0,.517-.367c.255-.4-.055-.9-.348-1.273a61.682,61.682,0,0,1-7.839-12.79q9.6,5.927,19.187,11.885a2.236,2.236,0,0,1,.687.636c.539.8.074,1.376-.375,1.852a25.26,25.26,0,0,1-4.055,3.483q5.562,5.061,10.638,10.625a1.742,1.742,0,0,1,.578,1.059c.012.592-.548,1.015-1.049,1.331l-4.382,2.771c-.4.254-.854.6-.82,1.077a1.355,1.355,0,0,0,.333.675,43.724,43.724,0,0,1,5.736,10.3,1.7,1.7,0,0,1,.16,1.092.432.432,0,0,1-.535.207" transform="translate(-6.965 -5.698)"/><path class="b" d="M2629.99-1429.675a122.108,122.108,0,0,1-16.451-13.605c-.275-.271-.57-.583-.377-1.048a1.128,1.128,0,0,1,.75-.625l5.358-1.512-12.112-13.758,4.4-2.011a1.142,1.142,0,0,0,.517-.367c.255-.4-.055-.9-.349-1.273a61.657,61.657,0,0,1-7.839-12.79q9.6,5.927,19.186,11.885a2.234,2.234,0,0,1,.687.636c.54.8.074,1.376-.374,1.852a25.262,25.262,0,0,1-4.055,3.483q5.562,5.061,10.637,10.625a1.741,1.741,0,0,1,.579,1.059c.012.592-.549,1.015-1.049,1.331l-4.382,2.771c-.4.254-.854.6-.82,1.077a1.356,1.356,0,0,0,.333.675,43.727,43.727,0,0,1,5.736,10.3,1.7,1.7,0,0,1,.16,1.092.433.433,0,0,1-.536.207"/></g></svg>