<svg xmlns="http://www.w3.org/2000/svg" width="26" height="53" viewBox="0 0 26 53"><defs><style>.a{fill:#3e5588;}.b,.c{stroke:none;}.c{fill:#707070;}</style></defs><g class="a" transform="translate(0 53) rotate(-90)"><path class="b" d="M 48.10578918457031 25.49999809265137 L 4.894219875335693 25.49999809265137 C 4.151430130004883 25.49999809265137 3.689919948577881 25.01825904846191 3.505680084228516 24.56741905212402 C 3.321449995040894 24.11657905578613 3.313499927520752 23.44948768615723 3.843709945678711 22.92927742004395 L 25.44948959350586 1.731158137321472 C 25.73163986206055 1.454328179359436 26.1047191619873 1.301878213882446 26.5 1.301878213882446 C 26.8952808380127 1.301878213882446 27.26836013793945 1.454328179359436 27.55051040649414 1.731158137321472 L 49.15629959106445 22.92927742004395 C 49.68650817871094 23.44948768615723 49.67855834960938 24.11657905578613 49.49433135986328 24.56741905212402 C 49.31008911132812 25.01825904846191 48.84857177734375 25.49999809265137 48.10578918457031 25.49999809265137 Z"/><path class="c" d="M 26.5 1.801868438720703 C 26.23648071289062 1.801868438720703 25.98776054382324 1.903497695922852 25.79965972900391 2.088058471679688 L 4.193870544433594 23.28618812561035 C 3.749031066894531 23.72263717651367 3.908920288085938 24.2324275970459 3.968521118164062 24.3782787322998 C 4.028118133544922 24.52412796020508 4.271018981933594 24.99999809265137 4.894210815429688 24.99999809265137 L 48.10578155517578 24.99999809265137 C 48.72898101806641 24.99999809265137 48.97187042236328 24.52412796020508 49.03147125244141 24.3782787322998 C 49.09106826782227 24.2324275970459 49.25096130371094 23.72263717651367 48.80612182617188 23.28618812561035 L 27.20034027099609 2.088058471679688 C 27.01223945617676 1.903507232666016 26.76351928710938 1.801868438720703 26.5 1.801868438720703 M 26.5 0.8018703460693359 C 27.00587844848633 0.8018703460693359 27.51175498962402 0.9926624298095703 27.90068054199219 1.374248504638672 L 49.5064582824707 22.57237815856934 C 50.7849006652832 23.82669830322266 49.89678955078125 25.99999809265137 48.10578155517578 25.99999809265137 L 4.894210815429688 25.99999809265137 C 3.10321044921875 25.99999809265137 2.215091705322266 23.82669830322266 3.4935302734375 22.57237815856934 L 25.09931945800781 1.374248504638672 C 25.48824501037598 0.9926624298095703 25.99412155151367 0.8018703460693359 26.5 0.8018703460693359 Z"/></g></svg>