<svg xmlns="http://www.w3.org/2000/svg" xmlns:xlink="http://www.w3.org/1999/xlink" width="25.448" height="20.807" viewBox="0 0 25.448 20.807"><defs><style>.a{fill:#fff;}.b{clip-path:url(#a);}</style><clipPath id="a"><rect class="a" width="25.448" height="20.807"/></clipPath></defs><g class="b" transform="translate(0 0)"><path class="a" d="M24.731.547c-.929.334-1.834.657-2.737.988a.771.771,0,0,1-.873-.2A5.235,5.235,0,0,0,12.46,6.042a3.987,3.987,0,0,1,0,.408,15.112,15.112,0,0,1-10.8-5.5A5.407,5.407,0,0,0,3.213,7.941l-.077.1L.923,7.421a5.588,5.588,0,0,0,4.083,5.212H2.78a5.413,5.413,0,0,0,4.9,3.653A10.784,10.784,0,0,1,0,18.472c.2.141.28.187.358.232a14.64,14.64,0,0,0,6.734,2.055,14.246,14.246,0,0,0,8.154-1.788,14.9,14.9,0,0,0,7.649-13.3.927.927,0,0,1,.388-.817,9.435,9.435,0,0,0,2.165-2.333c-.512.17-.945.336-1.391.455s-.912.2-1.367.294A6.059,6.059,0,0,0,24.731.547" transform="translate(0 -0.001)"/></g></svg>