<svg xmlns="http://www.w3.org/2000/svg" width="141.546" height="16.042" viewBox="0 0 141.546 16.042"><defs><style>.a{fill:#fff;}</style></defs><path class="a" d="M531.234,309.959a4.16,4.16,0,0,1-1.325.693,5.34,5.34,0,0,1-1.551.206,3.712,3.712,0,0,1-2.84-1.166,4.53,4.53,0,0,1-1.092-3.22,5.53,5.53,0,0,1,.309-1.9,3.577,3.577,0,0,1,2.109-2.2,4.135,4.135,0,0,1,1.546-.287,4.681,4.681,0,0,1,2.758.777l-.235,1.535a3.837,3.837,0,0,0-2.538-.933,2.115,2.115,0,0,0-1.712.779,3.4,3.4,0,0,0-.647,2.223,3.267,3.267,0,0,0,.689,2.251,2.374,2.374,0,0,0,1.849.763,3.844,3.844,0,0,0,1.263-.2,3.886,3.886,0,0,0,1.191-.725Z" transform="translate(-524.426 -297.927)"/><path class="a" d="M541.007,303.258a5.294,5.294,0,0,1,0,6.428,3.684,3.684,0,0,1-2.83,1.173,3.634,3.634,0,0,1-2.8-1.173,5.316,5.316,0,0,1,0-6.428,3.631,3.631,0,0,1,2.8-1.18A3.68,3.68,0,0,1,541.007,303.258Zm-.5,3.214a3.735,3.735,0,0,0-.615-2.212,1.982,1.982,0,0,0-1.713-.866,1.955,1.955,0,0,0-1.7.85,3.808,3.808,0,0,0-.6,2.228,3.746,3.746,0,0,0,.609,2.211,1.951,1.951,0,0,0,1.687.859,1.985,1.985,0,0,0,1.724-.848A3.753,3.753,0,0,0,540.505,306.472Z" transform="translate(-526.02 -297.927)"/><path class="a" d="M547.686,309.879h-1.573V297.368l1.573-.241Z" transform="translate(-527.931 -297.127)"/><path class="a" d="M557.218,303.258a5.29,5.29,0,0,1,0,6.428,3.681,3.681,0,0,1-2.829,1.173,3.637,3.637,0,0,1-2.8-1.173,5.32,5.32,0,0,1,0-6.428,3.634,3.634,0,0,1,2.8-1.18A3.677,3.677,0,0,1,557.218,303.258Zm-.5,3.214a3.729,3.729,0,0,0-.615-2.212,1.98,1.98,0,0,0-1.712-.866,1.958,1.958,0,0,0-1.7.85,3.815,3.815,0,0,0-.6,2.228,3.752,3.752,0,0,0,.609,2.211,1.953,1.953,0,0,0,1.688.859,1.985,1.985,0,0,0,1.724-.848A3.752,3.752,0,0,0,556.717,306.472Z" transform="translate(-528.64 -297.927)"/><path class="a" d="M574.142,310.679h-1.574v-5.743q0-1.446-1.24-1.448a3.471,3.471,0,0,0-2.388,1.372v5.819h-1.574v-5.743q0-1.446-1.231-1.448a3.474,3.474,0,0,0-2.4,1.372v5.819h-1.567V302.26h1.247l.195,1.212a6.843,6.843,0,0,1,1.41-1.018,3.227,3.227,0,0,1,1.528-.376,2.126,2.126,0,0,1,2.225,1.394,4.323,4.323,0,0,1,2.968-1.394,2.323,2.323,0,0,1,1.79.654,2.574,2.574,0,0,1,.607,1.822Z" transform="translate(-530.526 -297.927)"/><path class="a" d="M586.779,305.439a6.1,6.1,0,0,1-.3,2,3.509,3.509,0,0,1-2.157,2.263,4.7,4.7,0,0,1-1.677.287,11.233,11.233,0,0,1-3.29-.526V297.368l1.567-.241v5.31a3.467,3.467,0,0,1,2.538-1.159,3.238,3.238,0,0,1,1.284.257,3.138,3.138,0,0,1,1.054.761,3.529,3.529,0,0,1,.721,1.307A5.952,5.952,0,0,1,586.779,305.439Zm-1.573.063a3.438,3.438,0,0,0-.553-2.088,1.714,1.714,0,0,0-1.439-.741,3.043,3.043,0,0,0-2.294,1.388v4.293a5.231,5.231,0,0,0,.787.221,5.1,5.1,0,0,0,.911.067,2.384,2.384,0,0,0,1.92-.776A3.558,3.558,0,0,0,585.206,305.5Z" transform="translate(-533.302 -297.127)"/><path class="a" d="M592.165,298.175a.963.963,0,1,1-1.361,1.363.976.976,0,0,1,0-1.363.92.92,0,0,1,.678-.282A.93.93,0,0,1,592.165,298.175ZM592.273,310H590.7v-8.419h1.574Z" transform="translate(-535.108 -297.251)"/><path class="a" d="M601.99,310.679H600.7l-.181-1.119a4.074,4.074,0,0,1-2.961,1.3,2.52,2.52,0,0,1-1.806-.634,2.243,2.243,0,0,1-.669-1.708,2.724,2.724,0,0,1,.219-1.117,2.389,2.389,0,0,1,.638-.848,3.746,3.746,0,0,1,1.076-.625,8.8,8.8,0,0,1,1.482-.43q.823-.167,1.911-.286v-.351q0-1.451-1.62-1.45a7.2,7.2,0,0,0-2.9.736l-.21-1.363a10.135,10.135,0,0,1,1.589-.523,7.163,7.163,0,0,1,1.67-.182,3.43,3.43,0,0,1,2.3.651,2.564,2.564,0,0,1,.75,2.043Zm-1.576-2.31v-1.96a13.3,13.3,0,0,0-1.582.239,5.677,5.677,0,0,0-1.09.343,2.44,2.44,0,0,0-.661.429,1.364,1.364,0,0,0-.345.48,1.413,1.413,0,0,0-.091.515,1.063,1.063,0,0,0,.334.823,1.309,1.309,0,0,0,.92.3A3.468,3.468,0,0,0,600.413,308.369Z" transform="translate(-535.845 -297.927)"/><path class="a" d="M607.855,311.932h-1.773v-2.1h1.773Z" transform="translate(-537.621 -299.18)"/><path class="a" d="M617.832,310.714h-1.253l-.188-1.222a4.477,4.477,0,0,1-2.984,1.4,2.387,2.387,0,0,1-1.81-.654,2.523,2.523,0,0,1-.627-1.822V302.3h1.567v5.741q0,1.44,1.284,1.441a3.485,3.485,0,0,0,2.437-1.363V302.3h1.574Z" transform="translate(-538.411 -297.962)"/><path class="a" d="M628.958,310.679h-1.566v-5.743q0-1.446-1.285-1.448a3.5,3.5,0,0,0-2.444,1.372v5.819H622.1V302.26h1.247l.195,1.212a4.476,4.476,0,0,1,2.983-1.394,2.388,2.388,0,0,1,1.811.654,2.523,2.523,0,0,1,.626,1.822Z" transform="translate(-540.209 -297.927)"/><path class="a" d="M637.029,298.777a5.1,5.1,0,0,0-.824-.07c-.766,0-1.15.361-1.15,1.082v1.7h1.683l.205,1.315h-1.889v7.1H633.51v-7.1h-1.267V301.49h1.267v-1.867a2.112,2.112,0,0,1,.7-1.755,3.015,3.015,0,0,1,1.917-.555c.118,0,.252.005.4.016s.237.016.272.016Z" transform="translate(-541.849 -297.157)"/><path class="a" d="M647.231,306.239a6.165,6.165,0,0,1-.3,2,3.871,3.871,0,0,1-.835,1.433,3.6,3.6,0,0,1-1.211.834,3.752,3.752,0,0,1-1.464.287,5.692,5.692,0,0,1-2.124-.369v3.307l-1.567.241V302.26h1.247l.195,1.212a3.538,3.538,0,0,1,2.742-1.394,3.239,3.239,0,0,1,1.284.257,3.15,3.15,0,0,1,1.055.761,3.528,3.528,0,0,1,.72,1.307A5.925,5.925,0,0,1,647.231,306.239Zm-1.576.063a3.457,3.457,0,0,0-.546-2.088,1.7,1.7,0,0,0-1.435-.741,3.047,3.047,0,0,0-2.381,1.482V309a4.494,4.494,0,0,0,.951.355,5.006,5.006,0,0,0,1.11.106,2.009,2.009,0,0,0,1.668-.819A3.752,3.752,0,0,0,645.654,306.3Z" transform="translate(-543.058 -297.927)"/><path class="a" d="M657.336,310.679h-1.284l-.182-1.119a4.074,4.074,0,0,1-2.96,1.3,2.521,2.521,0,0,1-1.807-.634,2.243,2.243,0,0,1-.669-1.708,2.712,2.712,0,0,1,.22-1.117,2.37,2.37,0,0,1,.638-.848,3.722,3.722,0,0,1,1.076-.625,8.791,8.791,0,0,1,1.482-.43q.822-.167,1.911-.286v-.351c0-.967-.542-1.45-1.621-1.45a7.2,7.2,0,0,0-2.9.736l-.21-1.363a10.147,10.147,0,0,1,1.59-.523,7.162,7.162,0,0,1,1.669-.182,3.434,3.434,0,0,1,2.3.651,2.566,2.566,0,0,1,.75,2.043Zm-1.575-2.31v-1.96a13.287,13.287,0,0,0-1.583.239,5.676,5.676,0,0,0-1.09.343,2.435,2.435,0,0,0-.66.429,1.354,1.354,0,0,0-.345.48,1.4,1.4,0,0,0-.092.515,1.066,1.066,0,0,0,.334.823,1.311,1.311,0,0,0,.92.3A3.471,3.471,0,0,0,655.76,308.369Z" transform="translate(-544.788 -297.927)"/><path class="a" d="M663.2,311.932h-1.772v-2.1H663.2Z" transform="translate(-546.565 -299.18)"/><path class="a" d="M672.489,303.258a5.294,5.294,0,0,1,0,6.428,3.682,3.682,0,0,1-2.829,1.173,3.636,3.636,0,0,1-2.8-1.173,5.32,5.32,0,0,1,0-6.428,3.633,3.633,0,0,1,2.8-1.18A3.679,3.679,0,0,1,672.489,303.258Zm-.5,3.214a3.729,3.729,0,0,0-.615-2.212,1.981,1.981,0,0,0-1.712-.866,1.957,1.957,0,0,0-1.7.85,3.815,3.815,0,0,0-.6,2.228,3.752,3.752,0,0,0,.609,2.211,1.951,1.951,0,0,0,1.688.859,1.984,1.984,0,0,0,1.723-.848A3.746,3.746,0,0,0,671.988,306.472Z" transform="translate(-547.268 -297.927)"/><path class="a" d="M682.161,303.575a3.519,3.519,0,0,0-1.86.649,3.973,3.973,0,0,0-1.289,1.464v4.991h-1.566V302.26h1.246l.273,1.714a4.479,4.479,0,0,1,1.242-1.325,3.2,3.2,0,0,1,1.712-.571Z" transform="translate(-549.154 -297.927)"/><path class="a" d="M691.823,310.534a3.257,3.257,0,0,1-.936,2.476,3.989,3.989,0,0,1-2.846.893,7.818,7.818,0,0,1-3.142-.642l.235-1.495a6.009,6.009,0,0,0,3.015.806,2.167,2.167,0,0,0,1.6-.517,1.911,1.911,0,0,0,.513-1.41v-1.09a3.455,3.455,0,0,1-2.539,1.153,3.24,3.24,0,0,1-1.284-.255,3.115,3.115,0,0,1-1.054-.748,3.473,3.473,0,0,1-.721-1.28,5.669,5.669,0,0,1-.262-1.791,5.854,5.854,0,0,1,.3-1.947,3.819,3.819,0,0,1,.855-1.41,3.6,3.6,0,0,1,1.307-.837,4.74,4.74,0,0,1,1.679-.287,9.484,9.484,0,0,1,1.641.13,13.605,13.605,0,0,1,1.64.4Zm-1.566-2.6V303.79a5.275,5.275,0,0,0-.788-.222,5.111,5.111,0,0,0-.913-.067,2.387,2.387,0,0,0-1.914.776,3.416,3.416,0,0,0-.669,2.295,3.249,3.249,0,0,0,.555,2.01,1.723,1.723,0,0,0,1.433.732A3.038,3.038,0,0,0,690.257,307.934Z" transform="translate(-550.277 -297.939)"/></svg>