<svg xmlns="http://www.w3.org/2000/svg" width="181.73" height="84.5" viewBox="0 0 181.73 84.5"><defs><style>.a{fill:#fff;}.b{fill:#3571a4;}</style></defs><g transform="translate(-55.554 -9.219)"><path class="a" d="M841.759,9.219a42.266,42.266,0,0,0-39.942,28.452H804.3V54.246a8.167,8.167,0,0,0,.815,4.118,2.858,2.858,0,0,0,2.652,1.355,2.892,2.892,0,0,0,2.636-1.3,7.922,7.922,0,0,0,.84-4.172V37.671h4.847v16.95q0,4.924-2.109,7.544a8.677,8.677,0,0,1-12.433,0,8.128,8.128,0,0,1-1.108-1.861,42.261,42.261,0,0,0,81.638,3.834l-1.207-5h-6.931l-1.293,5.37h-4.859l6.906-26.566h5.551L884,52.389c.007-.305.008-.612.008-.918A42.251,42.251,0,0,0,841.759,9.219ZM818.953,37.947h5.761l6.82,15.217V37.947h4.423V64.513h-4.649l-7.936-18.235V64.513h-4.419Zm19.59,0h13.4v5.139h-8.6v4.942h7.973v5.135H843.34v11.35h-4.8Zm15.3,0h7.94a8.8,8.8,0,0,1,3,.445,6.106,6.106,0,0,1,2.17,1.305,6.706,6.706,0,0,1,1.721,2.693,11.455,11.455,0,0,1,.6,3.941,14.007,14.007,0,0,1-.437,3.5,8.72,8.72,0,0,1-1.256,2.854,8.136,8.136,0,0,1-2.5,2.376,6.669,6.669,0,0,1-3.418.8h-3v8.652h-4.827Zm4.827,4.958v7.96h1.38a7.924,7.924,0,0,0,2.022-.214,2.585,2.585,0,0,0,1.343-.857,3.5,3.5,0,0,0,.667-1.359,7.65,7.65,0,0,0,.214-1.944,4.056,4.056,0,0,0-.428-1.927,2.678,2.678,0,0,0-.992-1.141,3.315,3.315,0,0,0-1.47-.465c-.477-.036-1.111-.054-1.907-.054Zm18.733,1.841-2.3,9.525h4.6Z" transform="translate(-646.722 0)"/><g transform="translate(55.554 9.418)"><g transform="translate(59.293 27.479)"><g transform="translate(0 1.178)"><path class="a" d="M227.492,148.078a5.643,5.643,0,0,1-.7.634c-1.564-1.616-3.4-3.408-5.146-3.408-1.082,0-1.862.824-2.771,1.4a5.087,5.087,0,0,1-4.476.669,4.876,4.876,0,0,1-2.148-1.474,4.681,4.681,0,0,0,4.234.367,12.219,12.219,0,0,1,4.6-1.407C223.534,144.863,225.86,146.519,227.492,148.078ZM209.4,142.994c1.62,1.844,4.263,1.251,6.426,1.712a2.431,2.431,0,0,0,.907.115,4.86,4.86,0,0,0-.9-.293c-1.678-.632-1.94-2.428-2.858-3.665a28.525,28.525,0,0,1,3.242,2.851,5.439,5.439,0,0,0,2.7,1.2c-.237.087-.547.066-.8.13-1.772.44-3.737,1.134-5.622.511A5.551,5.551,0,0,1,209.4,142.994Zm-2.6-4.269c1.011,2.288,3.55,2.468,5.238,3.871a4.712,4.712,0,0,0,.992.677l.018-.018a7.366,7.366,0,0,1-1.113-1.211c-.965-1.4-.644-3.319-1.388-4.805a10.465,10.465,0,0,1,1.7,2.57c.626,1.491.839,3.193,2.244,4.326-1.521-.5-3.275-.4-4.644-1.3A6.6,6.6,0,0,1,206.807,138.725Zm-1.083-4.63c.146,2.016,2.293,3.093,3.316,4.75a4.441,4.441,0,0,0,.761,1.005,3.656,3.656,0,0,0-.323-.615,4.624,4.624,0,0,1-.395-2.38,11.889,11.889,0,0,0,.364-3.069c.882,1.9.6,4.284,1.107,6.343a10.432,10.432,0,0,0,.561,1.285c-.867-.659-2-1.245-2.954-1.995a5.531,5.531,0,0,1-2.437-5.326Zm.06-3.715a6.452,6.452,0,0,1,.379-1.328c-.371,1.9.895,3.276,1.327,4.921a12.833,12.833,0,0,0,.469,1.857c.023.013.044-.012.058-.03-.624-1.751.291-3.369,1.182-4.75a4.036,4.036,0,0,0,.457-1.212,8.991,8.991,0,0,1-.219,2.528c-.189,1.053-.549,2.04-.835,3.056a4.8,4.8,0,0,0-.042,2.016l-.091-.073c-.664-1.225-1.973-2.182-2.368-3.52A7.563,7.563,0,0,1,205.784,130.381Zm.7-2.046a5.826,5.826,0,0,1,1.4-3.685c.024-.012.042-.037.073-.031-.925,1.408-.083,3.184-.2,4.781l-.122,1.639c.018.012.018.061.061.042a4.677,4.677,0,0,0,.1-.566c.223-1.321,1.383-2.24,2.367-3.173a2.1,2.1,0,0,0,.513-.762,6.115,6.115,0,0,1-.561,1.931c-.757,1.533-2.22,2.77-2.483,4.513C207.506,131.354,206.484,130.113,206.484,128.335Zm2.439-4.855a3.328,3.328,0,0,1,1.608-1.077c-1.206.829-1.14,2.311-1.509,3.549-.135.453-.333.877-.439,1.345l.03.024a3.979,3.979,0,0,1,.993-1.461c.848-.8,2.123-1.284,2.542-2.455-.019,1.626-1.405,2.863-2.672,3.819a4.613,4.613,0,0,0-1.345,1.609,5.981,5.981,0,0,0,.031-1.262C208.034,126.152,207.949,124.56,208.923,123.48Zm4.893-2.734a16.868,16.868,0,0,0-2.179,2.7,15.9,15.9,0,0,1-2.031,1.858,20.98,20.98,0,0,1,.894-2.352A6.166,6.166,0,0,1,213.816,120.746Z" transform="translate(-205.695 -120.746)"/><path class="a" d="M300.915,148.078a5.643,5.643,0,0,0,.7.634c1.564-1.616,3.4-3.408,5.146-3.408,1.082,0,1.862.824,2.771,1.4a5.087,5.087,0,0,0,4.476.669,4.876,4.876,0,0,0,2.148-1.474,4.681,4.681,0,0,1-4.234.367,12.219,12.219,0,0,0-4.6-1.407C304.873,144.863,302.547,146.519,300.915,148.078ZM319,142.994c-1.62,1.844-4.263,1.251-6.426,1.712a2.431,2.431,0,0,1-.907.115,4.861,4.861,0,0,1,.9-.293c1.678-.632,1.94-2.428,2.858-3.665a28.525,28.525,0,0,0-3.242,2.851,5.439,5.439,0,0,1-2.7,1.2c.237.087.547.066.8.13,1.772.44,3.737,1.134,5.622.511A5.551,5.551,0,0,0,319,142.994Zm2.6-4.269c-1.011,2.288-3.55,2.468-5.238,3.871a4.711,4.711,0,0,1-.992.677l-.018-.018a7.366,7.366,0,0,0,1.113-1.211c.965-1.4.644-3.319,1.388-4.805a10.465,10.465,0,0,0-1.7,2.57c-.626,1.491-.839,3.193-2.244,4.326,1.521-.5,3.275-.4,4.644-1.3A6.6,6.6,0,0,0,321.6,138.725Zm1.083-4.63c-.146,2.016-2.293,3.093-3.316,4.75a4.441,4.441,0,0,1-.761,1.005,3.648,3.648,0,0,1,.323-.615,4.626,4.626,0,0,0,.395-2.38,11.885,11.885,0,0,1-.364-3.069c-.882,1.9-.6,4.284-1.107,6.343a10.436,10.436,0,0,1-.561,1.285c.867-.659,2-1.245,2.954-1.995a5.531,5.531,0,0,0,2.437-5.326Zm-.06-3.715a6.454,6.454,0,0,0-.378-1.328c.371,1.9-.895,3.276-1.327,4.921a12.837,12.837,0,0,1-.469,1.857c-.023.013-.044-.012-.058-.03.624-1.751-.291-3.369-1.182-4.75a4.034,4.034,0,0,1-.457-1.212,8.993,8.993,0,0,0,.219,2.528c.189,1.053.549,2.04.835,3.056a4.8,4.8,0,0,1,.042,2.016l.091-.073c.664-1.225,1.973-2.182,2.368-3.52A7.562,7.562,0,0,0,322.623,130.381Zm-.7-2.046a5.825,5.825,0,0,0-1.4-3.685c-.024-.012-.042-.037-.073-.031.925,1.408.083,3.184.2,4.781l.122,1.639c-.018.012-.018.061-.061.042a4.689,4.689,0,0,1-.1-.566c-.223-1.321-1.383-2.24-2.367-3.173a2.1,2.1,0,0,1-.513-.762,6.113,6.113,0,0,0,.561,1.931c.757,1.533,2.22,2.77,2.483,4.513C320.9,131.354,321.923,130.113,321.923,128.335Zm-2.439-4.855a3.327,3.327,0,0,0-1.608-1.077c1.206.829,1.14,2.311,1.509,3.549.135.453.333.877.439,1.345l-.031.024a3.978,3.978,0,0,0-.993-1.461c-.848-.8-2.123-1.284-2.542-2.455.019,1.626,1.405,2.863,2.672,3.819a4.613,4.613,0,0,1,1.345,1.609,5.979,5.979,0,0,1-.031-1.262C320.373,126.152,320.457,124.56,319.484,123.48Zm-4.893-2.734a16.88,16.88,0,0,1,2.179,2.7,15.881,15.881,0,0,0,2.031,1.858,21.01,21.01,0,0,0-.894-2.352A6.166,6.166,0,0,0,314.59,120.746Z" transform="translate(-288.367 -120.746)"/></g><path class="a" d="M266.346,129.243l-.264-.144a11.9,11.9,0,0,1-2.19,3.117l-1.544-1.544a9.66,9.66,0,0,0,1.816-2.62l-.263-.144a9.4,9.4,0,0,1-1.762,2.554l-1.4-1.4a7.37,7.37,0,0,0,1.421-2.106l-.261-.142a7.11,7.11,0,0,1-1.369,2.04l-1.546-1.546a4.881,4.881,0,0,0,.988-1.547l-.261-.142a4.618,4.618,0,0,1-.934,1.481l-1.4-1.4a2.6,2.6,0,0,0,.664-1.6h1.986a4.576,4.576,0,0,1-.313,1.525l.261.142a4.888,4.888,0,0,0,.344-1.668H262.5a7.046,7.046,0,0,1-.606,2.72l.261.142a7.356,7.356,0,0,0,.637-2.863h1.982a9.3,9.3,0,0,1-.879,3.813l.263.144a9.618,9.618,0,0,0,.909-3.957h2.189a11.77,11.77,0,0,1-1.18,5l.264.144a12.188,12.188,0,0,0,.33-9.848l-.271.117a11.821,11.821,0,0,1,.857,4.29h-2.189a9.638,9.638,0,0,0-.68-3.425l-.269.115a9.342,9.342,0,0,1,.657,3.309H262.8a7.366,7.366,0,0,0-.5-2.526l-.269.116a7.078,7.078,0,0,1,.474,2.41h-2.189a4.895,4.895,0,0,0-.3-1.546l-.269.115a4.6,4.6,0,0,1,.273,1.43h-1.986a2.6,2.6,0,0,0-.664-1.6l1.4-1.4a4.581,4.581,0,0,1,.972,1.577l.269-.115a4.879,4.879,0,0,0-1.035-1.669l1.548-1.548a7.056,7.056,0,0,1,1.5,2.352l.269-.116a7.353,7.353,0,0,0-1.561-2.443l1.4-1.4a9.331,9.331,0,0,1,1.982,3.061l.269-.115a9.628,9.628,0,0,0-2.044-3.153l1.548-1.548a11.812,11.812,0,0,1,2.509,3.835l.271-.117a12.195,12.195,0,0,0-6.723-6.713l-.108.275a11.814,11.814,0,0,1,3.843,2.512l-1.548,1.548a9.639,9.639,0,0,0-3.1-2.02l-.107.272a9.34,9.34,0,0,1,3,1.957l-1.4,1.4a7.361,7.361,0,0,0-2.319-1.513l-.107.272a7.068,7.068,0,0,1,2.219,1.448l-1.548,1.548a4.89,4.89,0,0,0-1.471-.957l-.107.272a4.593,4.593,0,0,1,1.371.892l-1.4,1.4a2.6,2.6,0,0,0-1.6-.664v-1.986a4.587,4.587,0,0,1,1.636.354l.107-.272a4.887,4.887,0,0,0-1.743-.374v-2.189a7.07,7.07,0,0,1,2.544.525l.107-.272a7.36,7.36,0,0,0-2.651-.545v-1.983a9.346,9.346,0,0,1,3.375.682l.107-.272a9.635,9.635,0,0,0-3.482-.7v-2.189a11.826,11.826,0,0,1,4.282.853l.108-.275a12.143,12.143,0,0,0-9.967.413l.133.255a11.785,11.785,0,0,1,5.152-1.247v2.189a9.592,9.592,0,0,0-4.134,1l.133.255a9.315,9.315,0,0,1,4-.965v1.982a7.335,7.335,0,0,0-3.08.743l.134.256a7.055,7.055,0,0,1,2.946-.706v2.189a4.871,4.871,0,0,0-1.93.46l.134.257a4.586,4.586,0,0,1,1.8-.424v1.986a2.615,2.615,0,0,0-.873.2l.134.257a2.338,2.338,0,1,1-.767.511,2.33,2.33,0,0,1,.767-.511l-.134-.257a2.625,2.625,0,0,0-.73.463l-1.4-1.4a4.6,4.6,0,0,1,1.212-.822l-.134-.257a4.916,4.916,0,0,0-1.283.873l-1.549-1.549a7.09,7.09,0,0,1,1.816-1.267l-.134-.256a7.413,7.413,0,0,0-1.887,1.318l-1.4-1.4a9.361,9.361,0,0,1,2.37-1.674l-.133-.255a9.7,9.7,0,0,0-2.441,1.725l-1.551-1.551a11.857,11.857,0,0,1,2.974-2.119l-.133-.255a12.218,12.218,0,0,0-5.46,5.5l.254.137a11.857,11.857,0,0,1,2.158-3.053l1.551,1.551a9.688,9.688,0,0,0-1.778,2.546l.253.137a9.369,9.369,0,0,1,1.729-2.479l1.4,1.4a7.409,7.409,0,0,0-1.381,2.021l.254.137a7.076,7.076,0,0,1,1.332-1.954l1.549,1.549a4.917,4.917,0,0,0-.948,1.449l.256.138a4.593,4.593,0,0,1,.9-1.382l1.4,1.4a2.613,2.613,0,0,0-.665,1.6H250.81a4.6,4.6,0,0,1,.349-1.625l-.256-.138a4.873,4.873,0,0,0-.385,1.763h-2.189a7.057,7.057,0,0,1,.641-2.808l-.254-.137a7.333,7.333,0,0,0-.679,2.945h-1.982a9.319,9.319,0,0,1,.91-3.892l-.253-.137a9.592,9.592,0,0,0-.949,4.029h-2.189a11.786,11.786,0,0,1,1.207-5.072l-.254-.137a12.064,12.064,0,0,0-1.249,5.356,12.186,12.186,0,0,0,.489,3.422l.287-.072a11.881,11.881,0,0,1-.479-3.2h2.189a9.68,9.68,0,0,0,.414,2.668l.284-.072a9.386,9.386,0,0,1-.406-2.6h1.982a7.4,7.4,0,0,0,.35,2.111l.284-.072a7.1,7.1,0,0,1-.342-2.04h2.189a4.9,4.9,0,0,0,.282,1.5l.285-.072a4.608,4.608,0,0,1-.274-1.432H252.8a2.6,2.6,0,0,0,.664,1.6l-1.4,1.4a4.59,4.59,0,0,1-.972-1.576l-.284.072a4.877,4.877,0,0,0,1.05,1.711l-1.548,1.548a7.056,7.056,0,0,1-1.63-2.722l-.284.072a7.337,7.337,0,0,0,1.708,2.857l-1.4,1.4a9.31,9.31,0,0,1-2.233-3.774l-.284.072a9.6,9.6,0,0,0,2.31,3.909l-1.548,1.548a11.777,11.777,0,0,1-2.886-4.922l-.287.072a12.2,12.2,0,0,0,6.416,7.537l.145-.258a11.843,11.843,0,0,1-3.181-2.223l1.548-1.548a9.658,9.658,0,0,0,2.714,1.857l.144-.256a9.363,9.363,0,0,1-2.651-1.807l1.4-1.4a7.363,7.363,0,0,0,2.228,1.474l.144-.256a7.073,7.073,0,0,1-2.165-1.425l1.548-1.548a4.876,4.876,0,0,0,1.7,1.047l.146-.259a4.588,4.588,0,0,1-1.643-1l1.4-1.4a2.6,2.6,0,0,0,1.6.664v1.986a4.608,4.608,0,0,1-1.364-.251l-.146.259a4.891,4.891,0,0,0,1.51.284v2.189a7.065,7.065,0,0,1-2.6-.547l-.144.256a7.356,7.356,0,0,0,2.741.584v1.982a9.329,9.329,0,0,1-3.72-.831l-.144.256a9.622,9.622,0,0,0,3.864.867v2.189a11.8,11.8,0,0,1-4.944-1.143l-.145.258a12.179,12.179,0,0,0,10.706-.119l-.138-.268a11.767,11.767,0,0,1-5.186,1.272v-2.189a9.606,9.606,0,0,0,4.185-1.022l-.137-.265a9.3,9.3,0,0,1-4.049.995v-1.982a7.338,7.338,0,0,0,3.142-.77l-.136-.264a7.041,7.041,0,0,1-3.007.741V128.85a4.872,4.872,0,0,0,2-.493l-.135-.262a4.583,4.583,0,0,1-1.87.463v-1.986a2.6,2.6,0,0,0,1.6-.664l1.4,1.4a4.63,4.63,0,0,1-1.137.784l.135.262a4.905,4.905,0,0,0,1.21-.838l1.545,1.545a7.106,7.106,0,0,1-1.753,1.234l.136.264a7.386,7.386,0,0,0,1.827-1.289l1.4,1.4a9.392,9.392,0,0,1-2.319,1.647l.137.265a9.657,9.657,0,0,0,2.392-1.7l1.544,1.544a11.892,11.892,0,0,1-2.936,2.1l.138.268a12.2,12.2,0,0,0,5.458-5.545Z" transform="translate(-238.245 -111.809)"/><path class="a" d="M229.017,96.3l-.073,0,0,.088.074,0Z" transform="translate(-211.15 -86.974)"/><rect class="a" width="0.098" height="0.075" transform="translate(17.686 9.212)"/><path class="a" d="M226.789,94.736l.086.013.01-.074-.086-.012Z" transform="translate(-209.279 -85.55)"/><rect class="a" width="0.086" height="0.075" transform="translate(17.437 9.161) rotate(-172.007)"/><rect class="a" width="0.098" height="0.075" transform="translate(16.732 9.063)"/><path class="a" d="M219.265,94.923l.085.012.01-.074-.085-.012Z" transform="translate(-202.747 -85.712)"/><rect class="a" width="0.101" height="0.075" transform="translate(16.527 9.324) rotate(-166.117)"/><rect class="a" width="0.076" height="0.074" transform="matrix(-0.161, -0.987, 0.987, -0.161, 16.352, 9.416)"/><path class="a" d="M144.372,153.945v-.062h-.061v.124h.1v.162h.074l-.013-.186Z" transform="translate(-137.67 -136.966)"/><path class="a" d="M149.374,158.731l-.049.087-.134-.124-.1-.136-.049-.112-.086-.224.184.087.062.174.085.063Z" transform="translate(-141.704 -140.733)"/><path class="a" d="M170.255,186.3l-.012-.112-.1-.149.147.025.159.137.062.162-.086.05-.049-.074Z" transform="translate(-160.1 -164.886)"/><path class="a" d="M262.251,184.269h-.135l-.025-.273.074-.05v-.137h-.429l-.012-.137.061-.037-.1-.037-.074.1-.024.112-.122.025v.062h-.086v.162l-.343.286-.686-.025c-.049.112-.172-.013-.172-.013-.024-.075-.2,0-.2,0,0,.137-.233-.062-.233-.062l-.429-.311c-.245-.224-.612.062-.624.124.012.174-.282.037-.282.037s-.245-.074-.282.025-.2.075-.2.075l-.025.05-.122.025-.024.074-.147.025.367-.012c.1-.012-.037.211-.1.2l-.171.012-.061.062H257.5l-.073.1-.233-.012s-.135.112-.122.149-.025.149-.061.149-.11.112-.086.149-.073.162-.073.162l-.024.124-.073.025v.336l-.147.1v.149l-.221.236.025.2-.184.2.024.2-.11.037-.024.087-.049.261.122.013c.061-.025.049.161,0,.186s-.184.075-.11.124-.2.037-.2-.037-.147-.137-.184-.112-.1-.112-.1-.112c-.135-.137-.551.012-.551.012l-.061.2c-.135.025-.22.249-.22.249-.11.037-.2.174-.159.211s-.061.05-.061.05v.274l-.061.087.012.3c.074,0,.061.137.061.137-.123.012-.1.174-.1.174l-.257.087-.049.074-.318-.012-.086.087-.086-.087h-.612l-.024-.062-.122-.025-.012-.137-.184.012-.037.075-.2.012c.012.124-.2.311-.22.261s-.159-.187-.1-.211a1.5,1.5,0,0,1,.221-.05v-.087l-.453-.012-.049.075-.184.012v.2l-.086.025c-.061.037.012.174.012.174.086.087-.012.223-.012.223-.074.075.061.211.061.211.1.025-.061.1-.061.1a.225.225,0,0,0,.1.161.127.127,0,0,0,.049.186l.012.211.086.05v.136l.049.087h.2l-.012-.311c-.172-.2.147-.249.159-.174s.147.112.147.112c.024.186.233.3.294.112s.11-.075.147.012a1.69,1.69,0,0,0,.269.3h.184l.025.174c.208-.012.269.013.355.3a.54.54,0,0,0,.318.36l.172-.012c0-.149.172.025.172.1s.331.36.331.36l.331.074.307.249.232-.025h.1c.061-.211.355.012.379.087s.221.2.245.137.159-.025.184.162.11.149.11.149l.7-.012.245-.212.625-.012c.318-.012.122-.447.061-.447-.11-.087.037-.447.037-.447l-.894-.833c-.208,0-.025-.3-.025-.3.159-.1-.037-.261-.037-.261a.557.557,0,0,0-.086-.323.44.44,0,0,1-.159-.435v-.2c-.184-.174.073-.2.073-.2a.206.206,0,0,0-.061-.261l-.012-.162-.2-.025-.024-.584-.441-.634c-.086-.025-.025-.174-.025-.174.11-.062-.025-.211-.025-.211l-.012-.273.257-.025.061-.1h.122l-.012-.323a.137.137,0,0,1,.208-.075l.171.012.1-.186.024-.149-.135-.012c-.147-.087-.074-.41-.074-.41.233-.348.5-.149.5-.149l.172-.012c.257.174.024.5.024.5a.735.735,0,0,0-.024.311l.061.4-.159.137c-.135.075-.135.249.012.286.1.012.061.249-.086.087-.22,0,.123.2.025.149.221.112.171-.1.171-.1l.294-.236c.11-.087.306.187.306.224a2.158,2.158,0,0,0,.49.012.568.568,0,0,1,.184.311c.135-.174.416-.013.208.087.2.124.2.236.2.236.159-.05.159.075.159.112a1.284,1.284,0,0,0,.049-.186c-.184-.137.245-.186.122.062l-.074.112.122.1.012.286c.269-.025.2-.361.2-.361l.122-.025c0-.112.086-.05.086-.05-.086-.423.2-.5.2-.5.159-.037.171-.373.171-.373-.11-.05-.049-.224.073-.074s-.073-.3-.073-.3l-.1-.087-.135-.012-.012-.137h-.22l-.037.174-.086.025-.025-.05-.037.137h-.22l-.012-.149.135-.037.049-.075.037-.2h.159l.208-.062c.012-.211.122-.162.122-.162l.073.062.11.087.012.074-.074.037-.012.1.037.137h.1a.205.205,0,0,1,.367-.075l.073-.174c-.171-.087,0-.224.046-.162s.162-.162.162-.162.086.112,0-.037a.154.154,0,0,1,.061-.224c-.024-.149.159-.124.159-.124l.012-.2-.172-.013c-.036.174-.184.025-.11-.012a.68.68,0,0,0,.147-.112v-.124l.074-.025.012-.124h.184l.159-.075.037-.062.171-.012.245-.224-.024-.1c-.147,0,0-.112,0-.112l.024-.186Z" transform="translate(-245.459 -174.137)"/><path class="a" d="M292.693,207.2l-.22-.025.012.087h.061a1.217,1.217,0,0,1,.012.6s-.147.012-.172-.062-.086.162-.037.2.22,0,.233.137.11-.087.11-.087V207.2Z" transform="translate(-280.835 -194.606)"/><path class="a" d="M182.518,128.645l-.086-.037.012-.186.074-.013.012-.087-.184.125-.122-.074v.3l.2.261.073-.174Z" transform="translate(-170.587 -114.773)"/><path class="a" d="M183.995,134.2v-.124l-.085.012-.013.1Z" transform="translate(-172.039 -119.771)"/><path class="a" d="M183.12,138.974v-.087l-.1.012v.087Z" transform="translate(-171.275 -123.946)"/><path class="a" d="M295.732,222.252a.053.053,0,1,0-.052-.053A.052.052,0,0,0,295.732,222.252Z" transform="translate(-283.742 -207.606)"/><ellipse class="a" cx="0.052" cy="0.053" rx="0.052" ry="0.053" transform="translate(12.023 14.801)"/><ellipse class="a" cx="0.052" cy="0.053" rx="0.052" ry="0.053" transform="translate(12.026 13.382)"/><path class="a" d="M210.411,113.771l-.1.025-.22.211-.012.1-.061.087-.073.186-.257.012-.049.224.036.186.22.087.025-.124.073-.037.013-.124.048-.087.074-.087.024-.1.122-.074.147-.025.061-.074.025-.149.009-.112.053-.075.147-.062v-.236h-.073l-.012-.087-.135-.012-.024.062h-.061l-.013.1h.074l.012.074-.049.05Z" transform="translate(-194.389 -101.838)"/><path class="a" d="M323.678,203.448v-.174l-.025-.162-.183-.087-.135.124-.025.174v.112l-.122.025-.025.335-.1.037.012.124-.135.037-.135.037-.024.162-.1.062-.049.149-.061.36s.11.211.172.112a.239.239,0,0,1,.159-.112l.037-.087.331.012c.024-.137.184-.087.184-.025s.123.012.123.012l.086-.137h.135l.012-.149.061-.037v-.224a.233.233,0,0,0,.171-.249l.049-.062-.025-.087c-.1-.037-.049-.125.012-.1s-.086-.112-.086-.112c-.073.062-.134-.075-.134-.075Z" transform="translate(-307.094 -191.005)"/><path class="a" d="M329.683,217.068c-.012.149-.2.2-.2.2l-.135-.037-.073-.062-.012-.174.11-.012.025.075Z" transform="translate(-312.903 -203.122)"/><path class="a" d="M336.558,209.4c.026.108.024-.174.073-.162s.012-.174.012-.174l-.221.161C336.533,209.237,336.545,209.349,336.558,209.4Z" transform="translate(-319.116 -196.247)"/><path class="a" d="M341.644,206.375c.049.112.037.274.22.4.062.042-.037.124-.1.087a1.859,1.859,0,0,1-.232-.311v-.162C341.571,206.288,341.623,206.327,341.644,206.375Z" transform="translate(-323.554 -193.87)"/><path class="a" d="M231.284,148.6l-.085.063.036.037.036.062.086-.136Z" transform="translate(-213.108 -132.378)"/><line class="b" y2="0.15" transform="translate(17.784 16.084)"/><path class="a" d="M242.055,145.376l.1-.062-.039-.063-.1.061Z" transform="translate(-222.5 -129.472)"/><path class="a" d="M380.356,245.973l.11.05.012.211c.147.149.625.025.625-.012s-.025-.46-.025-.46l-.061-.062-.012-.311c.049-.162-.233-.4-.257-.348s-.184.012-.184.062-.1.3-.049.385-.037.087-.049.174S380.331,245.9,380.356,245.973Z" transform="translate(-357.257 -227.477)"/><path class="a" d="M377.2,248.177c-.023.094-.11.149-.159.112s.061.062.086.112a.069.069,0,0,0,.122,0c.024-.05.012-.162.037-.211S377.214,248.128,377.2,248.177Z" transform="translate(-354.372 -230.179)"/><rect class="a" width="0.086" height="0.236" transform="translate(22.26 15.718)"/><path class="a" d="M383.589,212.143c-.053-.072.245-.2.294-.05s0,.124-.049.112S383.662,212.243,383.589,212.143Z" transform="translate(-360.061 -198.818)"/><path class="a" d="M274.371,114l-.013.073.134.025.013-.073Z" transform="translate(-250.58 -102.336)"/><path class="a" d="M270.509,114.815l-.036.021-.091.052-.08-.05-.039.063.1.062.018.012.018-.011.074-.042.009.023.068-.027-.025-.062Z" transform="translate(-247.024 -103.046)"/><path class="a" d="M380.781,177.657H380.6s.061.025-.11-.137a.168.168,0,0,0-.282.037l-.2.025v.2l-.1.037.012.124.135-.012s0,.149.037.087.343.012.318.161c-.01.061.306.224.269.422a.149.149,0,0,1,.122.187l.208.025.061-.124.061.013v-.075l-.135-.037-.024-.4-.086-.062.024-.1-.1-.037.049-.162Z" transform="translate(-356.873 -168.806)"/><path class="a" d="M387.523,188.514l-.1-.012-.221.037-.122.236a.358.358,0,0,1,.11.124c.049.087.074.6-.073.684s.012.037.012.037l-.025.273c.037.124.1.062.135,0s.074-.074.123-.137a.664.664,0,0,0,.135-.261c.012-.087.073-.224.037-.261s.037-.211.037-.211a.243.243,0,0,0,0-.2.268.268,0,0,1,.049-.261l-.1-.05Z" transform="translate(-363.077 -178.396)"/><rect class="a" width="0.1" height="0.074" transform="translate(24.594 10.626) rotate(-82.823)"/><rect class="a" width="0.073" height="0.083" transform="translate(24.589 10.969) rotate(-153.599)"/><path class="a" d="M388.566,179.338l-.049-.112a.443.443,0,0,1,.025-.149c.025-.05-.049-.1-.086-.112s-.024-.112-.037-.162-.1-.087-.1-.087-.025-.186-.025-.224-.11-.087-.073-.124a.913.913,0,0,1,.1-.112c.037-.025-.037-.2.024-.162s.061.1.086.149-.012.224.049.261-.012.161.086.161.037.236.037.236-.025.174.036.186.025.311.025.311l-.1-.062Z" transform="translate(-364.084 -169.356)"/><path class="a" d="M384.838,172.2c.037.05.11.087.11.137s-.024.087.049.1.122-.012.147.05a.422.422,0,0,1,.012.211c-.012.05.012.124.073.124s.073.013.073.05.074-.137.074-.137a.521.521,0,0,1-.11-.162,1.962,1.962,0,0,1-.061-.2c0-.025-.086-.05-.122-.062s-.1-.124-.1-.124l-.147.012Z" transform="translate(-361.151 -164.228)"/><path class="a" d="M383.344,168.475a.348.348,0,0,0-.122-.112.3.3,0,0,0-.135-.05.08.08,0,0,1-.073-.112c.025-.062-.037-.087-.037-.137s.037-.05.1-.012.049.05.1.112.073.124.122.112.086.112.135.075.037.087.037.087Z" transform="translate(-359.535 -160.617)"/><path class="a" d="M372.474,175.21c.067.069-.367.05-.367,0s.037-.224.147-.187.122-.224.122-.224-.1.012-.012-.037,0-.124-.037-.162a.635.635,0,0,1-.073-.1h.172c.073-.05.1-.286.1-.286a.192.192,0,0,0,.22-.05.518.518,0,0,0,.074.137c.049.062-.123.087-.061.124a.171.171,0,0,1,.061.186c-.025.037-.159.012-.159-.037s-.049.062,0,.124-.061.149-.086.149-.183.025-.049.1a.426.426,0,0,0,.282.037s.11-.013.147.05-.012.075-.073.075-.355-.025-.355-.025S372.437,175.173,372.474,175.21Z" transform="translate(-350.097 -165.949)"/><path class="a" d="M368.673,182.856c.061-.012.208-.025.233.012s-.086.087-.086.087l-.147.025C368.624,182.918,368.612,182.869,368.673,182.856Z" transform="translate(-347.08 -173.483)"/><path class="a" d="M380.936,173.544c.1-.05.306-.05.294-.124s.122-.1.122-.1l.037.149.11.075.012.137s.037-.025-.1.012-.049.1-.049.1l-.294.012-.037-.124Z" transform="translate(-357.763 -165.214)"/><path class="a" d="M376.26,167.3c.074,0-.024.286.171.261s.012.087.159.1.11-.112.159-.2.025-.137-.061-.162-.086-.025-.11-.124a.179.179,0,0,0-.122-.124l-.037-.149-.159.1-.159.211C376.1,167.379,376.186,167.3,376.26,167.3Z" transform="translate(-353.565 -159.646)"/><rect class="a" width="0.083" height="0.074" transform="translate(23.019 8.709) rotate(-63.602)"/><rect class="a" width="0.074" height="0.087" transform="translate(22.891 8.59)"/><rect class="a" width="0.112" height="0.074" transform="translate(22.953 6.934) rotate(83.695)"/><rect class="a" width="0.074" height="0.062" transform="translate(22.744 8.093)"/><rect class="a" width="0.075" height="0.123" transform="matrix(-0.097, -0.995, 0.995, -0.097, 22.551, 8.092)"/><rect class="a" width="0.073" height="0.095" transform="translate(21.541 9.287) rotate(-156.958)"/><rect class="a" width="0.074" height="0.123" transform="matrix(-0.097, -0.995, 0.995, -0.097, 21.157, 9.061)"/><path class="a" d="M236.565,94.094l-.269.012,0,.074.269-.012Z" transform="translate(-217.534 -85.056)"/><rect class="a" width="0.114" height="0.074" transform="matrix(-0.214, -0.977, 0.977, -0.214, 18.582, 9.146)"/><rect class="a" width="0.074" height="0.039" transform="translate(18.531 9.223) rotate(-108.225)"/><path class="a" d="M350.279,179.978l-.012.087.135.012s.061.05.061.087.086.075.135.075a.613.613,0,0,0,.184-.1s.061-.174.012-.162-.147.087-.159.012-.159-.037-.159-.037l-.2.025Z" transform="translate(-331.135 -170.965)"/><path class="a" d="M354.979,177.873c0,.037-.024.087.049.1s.208-.05.221.025.012.124.11.162a.6.6,0,0,0,.233.05,2.206,2.206,0,0,0,.233-.025.652.652,0,0,1,.208.062q.2.2.257.112c.037-.062-.012-.2-.024-.249s-.184-.286-.245-.236-.073,0-.184.037-.343.013-.355-.037-.184-.074-.184-.124-.122-.112-.11-.037-.086.112-.11.087S354.979,177.873,354.979,177.873Z" transform="translate(-335.223 -168.997)"/><path class="a" d="M365.8,152.58l.086-.273c-.122-.025-.1-.162-.1-.162-.012-.112-.184-.236-.245-.2s-.037-.261-.037-.261.11-.074.159-.037-.416-.621-.514-.559-.318-.062-.306-.174-.441-.485-.441-.485-.147-.1-.171-.025-.073.124,0,.161.061-.062.147.025.245.2.184.273a.333.333,0,0,1-.135.1l.086.1h.135l.024.211s.147.075.184.162.037.137,0,.186a.343.343,0,0,0-.1.224.18.18,0,0,0,.11.124l.1.013.074.037v.162c.1-.025.257.112.245.2s.024.037.147.124.086.1.172.162.159.025.2-.087Z" transform="translate(-343.227 -145.295)"/><path class="a" d="M360.64,152.711c-.012-.05-.037-.224.037-.211s.025,0,.11.037.1-.062.1-.062h.135l.171.137-.025.112-.122.012c-.061-.1-.184-.062-.159.025a.292.292,0,0,1-.11.261c-.049.012-.208.012-.2-.062s.061-.249.061-.249Z" transform="translate(-340.088 -147.116)"/><path class="a" d="M354.5,146.369v-.1s-.012-.1-.074-.1-.171-.074-.147-.124-.208-.1-.208-.1-.208-.2-.135-.174.037-.087.037-.087a.75.75,0,0,1-.184.012c-.037-.012-.025-.124-.025-.124s-.147-.037-.147,0,.049.037.073.112.012.2.123.224.134.05.147.1.147.062.147.062l.1.05Z" transform="translate(-334.041 -141.11)"/><path class="a" d="M238.209,54.985l-.036-.1-.1-.025v.112Z" transform="translate(-219.077 -50.993)"/><path class="a" d="M349.78,137.371c-.128-.1.171.075.171.075a.156.156,0,0,1,.159.112c0,.037.135.025.135.025l.012-.087-.1-.124-.086-.062s-.135-.013-.135-.05-.11.149-.159.112Z" transform="translate(-330.685 -133.901)"/><path class="a" d="M366.084,137.4c-.036.109-.049.261-.11.261s-.037.162-.037.162a1.5,1.5,0,0,1,.208.012c.049.012.049.137.049.137.184-.012.257.236.233.3s.074.062.074.062a1.035,1.035,0,0,1-.025.249c-.024.05.159.087.208.162a.421.421,0,0,1-.061.336c-.037.012.1.05.086.112s.037,0,.049.1.037.311.037.311l.171.013c.025-.161.34-.168.392-.149a.741.741,0,0,1,.368.472c0,.074-.135.087-.135.087l.025.36c.208.062.379.361.355.41s.147.037.147.037c.025-.224.233-.149.245-.075s.049.236.049.236l.061.112.086.087.135-.012.037.075.159.025a1.361,1.361,0,0,1,.147.186c.012.037.2.025.245.037s.122.05.135.112a.578.578,0,0,0,.086.162s.147.037.159.087a1.065,1.065,0,0,0,.074.162l.122.1.012.112.135.012.037.149.22-.012.123-.087a.645.645,0,0,0,.282-.249c.012-.05.037-.236.159-.2s.037-.273.037-.273-.171-.124-.159-.187-.171-.186-.159-.236-.159-.149-.147-.2-.086-.187-.086-.187l-.184-.174-.025-.112-.147-.012-.294-.36.012-.1-.086-.012v-.137l-.086-.05-.135-.012-.269-.3-.024-.137h-.135l.024-.261a.463.463,0,0,0,.037-.323s-.172.087-.257.05.036-.124.036-.124v-.1l-.073-.075s-.208.025-.22-.012-.049-.2-.049-.2l-.012-.211-.086-.037-.012-.075-.134.012v-.149l-.074-.025-.073-.037-.012-.149-.269-.012-.086-.124-.1-.149-.306-.025-.073-.074-.122-.025-.086-.037-.037.062-.233.012-.012.075C366.586,137.408,366.1,137.358,366.084,137.4Z" transform="translate(-344.737 -133.851)"/><path class="a" d="M376.838,135.336c-.019-.1.245-.186.306-.112a.5.5,0,0,1,.257.46c.009.134-.22-.137-.22-.137l-.184-.062a.2.2,0,0,1-.159-.149Z" transform="translate(-354.204 -132.114)"/><rect class="a" width="0.073" height="0.123" transform="translate(19.042 3.373) rotate(-156.187)"/><path class="a" d="M338.007,124.378l-.16-.162v-.137l-.049-.05-.049-.174-.159-.05-.159.062-.172.112-.184.025-.1.112.392.037.073.124.282.025.184.186C338.068,124.54,338.1,124.465,338.007,124.378Z" transform="translate(-319.598 -122.226)"/><path class="a" d="M343.976,122.113c-.027-.109-.184.137-.024.186a.593.593,0,0,0,.318,0l.037-.074.612.012a.36.36,0,0,0,.074-.124.446.446,0,0,1,.208-.025c.061.025.012-.174-.049-.149a.515.515,0,0,1-.184.012h-.221c-.012-.087-.208-.05-.22,0s-.086.062-.086.062l-.282.025C344.135,122.113,343.988,122.163,343.976,122.113Z" transform="translate(-325.591 -120.57)"/><path class="a" d="M334.745,136.209c.188.06.257.016.27-.034s.024-.062.1-.075-.012-.162-.086-.149a.133.133,0,0,1-.159-.087c-.013-.062-.135-.224-.147-.1s-.086.124-.074.211S334.7,136.193,334.745,136.209Z" transform="translate(-317.573 -132.568)"/><path class="a" d="M324.716,140.255c-.009-.044.245-.05.282-.013s.012.1.122.1.061.075.049.112-.135.025-.147-.012-.2-.05-.2-.05S324.728,140.317,324.716,140.255Z" transform="translate(-308.952 -136.474)"/><path class="a" d="M243.756,33.985l-.1.078L243.6,34l-.052.053.085.087.024.024.025-.021.123-.1Z" transform="translate(-223.827 -32.868)"/><path class="a" d="M239.252,31.778l-.078-.05-.039.063.1.062.019.013.02-.013.135-.087-.039-.063Z" transform="translate(-219.998 -30.888)"/><path class="a" d="M236.055,51.573l-.018,0-.122-.013-.008.074.105.011.076.121.062-.04-.085-.136Z" transform="translate(-217.195 -48.126)"/><path class="a" d="M317.463,164.262l.013.137h.183c.073,0-.061-.087-.061-.087S317.451,164.324,317.463,164.262Z" transform="translate(-302.654 -157.35)"/><rect class="a" width="0.074" height="0.097" transform="translate(15.042 6.916) rotate(-50.396)"/><rect class="a" width="0.074" height="0.105" transform="translate(12.811 4.591) rotate(-44.951)"/><path class="a" d="M217.1,181.324l-.122-.062-.033.067.077.039-.025.026.052.053.061-.062.036-.036Z" transform="translate(-200.735 -160.737)"/><path class="a" d="M209.9,174.564l-.047-.057-.074.062-.036.031.039.028.086.062.043-.06-.047-.035Z" transform="translate(-194.477 -154.872)"/><path class="a" d="M390.421,242.744a.151.151,0,0,0-.1-.092l-.023.071h0l.023.012.015.064-.016.022.054.05A.138.138,0,0,0,390.421,242.744Z" transform="translate(-365.894 -225.409)"/><path class="a" d="M280.1,154.475l-.119-.009.009-.112.12.019Z" transform="translate(-255.462 -137.375)"/><path class="a" d="M413.3,233.941c.052-.033.119-.093.11.047s-.064.093-.11.14S413.226,233.987,413.3,233.941Z" transform="translate(-385.823 -217.81)"/><path class="a" d="M417.757,229.586a.109.109,0,0,1,0-.017.2.2,0,0,0-.019-.078l-.066.033a.143.143,0,0,1,.011.051.079.079,0,0,0,.025.062.06.06,0,0,0,.05.009l-.014-.072A.021.021,0,0,1,417.757,229.586Z" transform="translate(-389.657 -213.983)"/><path class="a" d="M417.087,230.557c.019.076.046.15.047.153l.069-.026a1.516,1.516,0,0,1-.045-.145Z" transform="translate(-389.15 -214.892)"/><path class="a" d="M414.568,232.854l-.073-.007c-.006.059.008.131.066.143l.014-.073h0a.11.11,0,0,1-.009-.063Z" transform="translate(-386.898 -216.896)"/><path class="a" d="M411.092,221.257a.067.067,0,0,0-.04-.052.244.244,0,0,0-.191.046l.041.062a.2.2,0,0,1,.121-.04l0,0Z" transform="translate(-383.745 -206.782)"/><path class="a" d="M329.6,183.245a.4.4,0,0,1-.159.075l-.037.137-.061.05a.311.311,0,0,1,0,.124c-.012.087-.122.137-.122.137l-.049.062a2.267,2.267,0,0,1-.331,0,.1.1,0,0,1,.037-.186c.073.012-.012-.211-.012-.211l.1-.012s.012-.224.049-.224-.012-.075-.061-.112-.11-.161-.159-.149a1.587,1.587,0,0,1-.245,0l-.037.075-.135.025s.012.1-.012.124c-.074.087-.355.273-.233-.037l.037-.074v-.112l-.22-.012s-.11-.037-.11-.087a.693.693,0,0,0-.012-.112l-.257-.286-.306-.037-.025-.062-.183-.025c-.221-.112-.417-.012-.38.174s.1.261-.024.261a.143.143,0,0,1-.147-.1s-.1-.037-.1.012-.037.149,0,.2-.049.124-.086.087-.135-.149-.11-.186-.172-.274.024-.311-.012-.149.061-.174l.1-.05h.1l.061-.05-.159-.025-.1-.012-.184-.012a.52.52,0,0,0-.22.273c-.1.186-.331-.075-.245-.174s-.27-.012-.331.037-.245.025-.245.025c-.037.112-.208-.012-.159-.087a.253.253,0,0,0,.049-.124l-.061-.013-.073.137c-.171,0-.221.1-.184.162s-.049-.012-.073.075.012.087.086.124-.037.037.012.1.2,0,.11.087a.319.319,0,0,1-.257.05c-.012.112-.245.087-.269.05s-.208-.261-.208-.261l-.233-.012c-.024-.174.11-.087.159-.224a1.977,1.977,0,0,0,.074-.36s-.2-.012-.208.05-.135.1-.135.1-.1.037-.061.087-.073.074-.073.074.019.08-.012.112c-.1.1-.343.012-.38-.025l-.147-.062-.147-.1-.171.074-.049.05h-.184l-.012.149.331.037.024.308-.135-.046h-.086l-.037-.075-.074-.012v.273l.074.062.061.062.122.012.025.149.306.013.037.062.184.012.355.36-.024.112-.061.037c.025.087-.159.037-.159.037v.074l.085.012.086.05.122-.211c.135-.087.2.037.208.112s-.061.062-.061.062v.174l.074.025a.146.146,0,0,1-.049.236l-.037.124c-.037.112-.171.087-.171.087l-.049.075-.147.037.291.037c.028-.1.1-.124.138-.075a.274.274,0,0,1,.037.137l.074.012-.012.137.074.025v.4l.086.1c.147-.062.147.037.073.087s-.024.273-.024.273l-.061.062v.1l-.073.05v.137a.321.321,0,0,0-.306,0c-.11-.075-.343-.05-.343.013.073.1-.086.124-.086.124l-.086.1c.061.124-.061.137-.061.137v.236l-.147.137.012.323c0,.087.184.1.22.05s.184.1.184.1h.11l.025-.224-.074-.037v-.36l.122-.137c.147-.05.1.323.1.361.012.137.073.124.135.1.122-.05.024.137-.073.124s-.037.124-.037.124l.061.025-.11.087-.1.112-.123-.037-.147-.012-.049-.087-.086-.012-.012.174-.061.075-.147.149c.2,0-.025.136-.073.136.11.037-.012.149-.294.062v.087l-.1.013.086.1.1.012-.037.211c0,.161-.4.05-.441.012l-.012.224-.073.012.012.149-.012.211.135-.025v.087l.331.012.478-.51.281-.062c.024-.124.147.025.147.025.123-.013.147.074.147.074l.159.025c.135.037.053.05.061.1.012.074.073.049.073.049l.025-.161.073.012-.073-.087-.135-.062-.147-.062c-.1-.137.024-.112.123-.1h.159a1.36,1.36,0,0,1,.184.311c0,.062.086.075.086.075l.11-.012.037.087h.11l.037.074h.22l.012-.112-.208-.037-.012-.124-.147-.037c-.049-.211.037-.273.1-.174l.073.012-.024-.186.086-.025-.024-.261-.073-.025V187.9l.306.013a.433.433,0,0,1,.012-.236h.086l.012.062.375.035.265-.3c-.013-.023.027-.037,0-.067s-.086,0-.147-.037,0-.249-.012-.3.208-.124.172-.012,0,.162,0,.162a.16.16,0,0,1,.282.05c-.013.037.086.075.147.037s.135.112.11.186-.245.062-.257-.012-.049-.05-.073-.012a.179.179,0,0,1-.2.025.058.058,0,0,1-.022-.02l-.265.3.017,0c.147.087.074.2.025.224a.374.374,0,0,1-.135.025l-.024.05-.318.025-.025.124a.175.175,0,0,0-.183.236.207.207,0,0,1,0,.161l.135.062.171-.05c.025-.124.135-.149.233-.224s.257.136.208.236a.382.382,0,0,0-.049.137l.012.112-.122.05-.1.05-.013.062h-.331l-.061.062-.159.013-.049.074-.11.012s-.184.087-.11.186-.306.087-.392-.05c-.025.124-.159.012-.159.012l-.135-.037-.012-.186c-.025-.124-.257-.124-.245-.037s-.441.037-.441.037l-.147.071-.135.078-.012.062-.221.025-.1.05-.037-.075h-.1l-.1.137c-.257.013-.5.162-.477.224s-.1.124-.1.124l-.11.037-.073.112-.147.05-.025.261-.073.05v.112l-.086.025v.062l-.122.012.073.186.1.05c.171.025.1.236.1.236l.1.012.049.137.1.2c.037.149.147.112.2.1s.1.149.1.149l.49.013s-.024.05.061.075a2.487,2.487,0,0,0,.674.012c-.025-.112.306-.137.441-.037a.385.385,0,0,0,.318.037l.184.223.123.273.208.062.147.037.049.211.11.012.037.137c.135.1-.037.311-.037.311v.273l.1.05-.012.1.159.161.184.013.465.5.367.112.061.2.1-.012.073-.062.294-.012.147-.137.159-.025L327.967,193l-.123-.075v-.273c.22-.162.233-.448.025-.472-.158-.019-.086-.186.061-.211l.086-.037v-.112l.282-.261v-.2l-.612-.51c-.27-.1,0-.7.183-.684s-.012-.92-.012-.92l-.1-.05.025-.3h-.135l-.221.286-.061.2c-.025.261-.784.211-.821.174a2.155,2.155,0,0,0-.294-.149s-.2-.162-.233-.112-.208-.062-.208-.025-.159-.087-.159-.087l-.245-.087.184-.037-.037-.149.318.162c.037.05.2.037.2.037l.049.062a.19.19,0,0,1,.16.062c.061.075.379.012.379.012l.086.074.135.05.38.012.012-.236.073-.075-.012-.149.086-.074v-.124l.073-.025.012-.273.061-.012v-.6l-.184-.174c-.012.062-.208.062-.208.062s-.049.087-.086.087.049.112.024.186-.122.074-.122.074l-.184.05-.049.062h-.2l-.024-.161.22-.062.122-.062.061-.124c.012-.124.159-.112.159-.112s.282-.236.294-.348.11-.423.282-.423h.318c.122-.05.086-.211.086-.211l.159-.025.024.087s.221.025.245-.012.074-.124.135-.087.257-.087.257-.087c.012-.087.318-.05.318-.05l.037-.112s-.208-.286-.245-.286-.233-.174-.257-.112c-.2-.05-.184-.323-.184-.323l-.073-.174c0-.1-.183-.311-.221-.286a.176.176,0,0,1,0-.311c.049-.012.172-.186.172-.186l.061-.174.208-.062.025-.162-.11-.012s.122-.224.184-.224a3.217,3.217,0,0,0,.5-.025.7.7,0,0,0,.11-.261c0-.037.1-.05.135-.062a.47.47,0,0,0,.147-.162C329.73,183.506,329.645,183.195,329.6,183.245Z" transform="translate(-305.64 -172.74)"/><path class="a" d="M333.19,223.052c.018-.018.037.056.073.047s.055.065.018.065-.037.047-.037.065a.134.134,0,0,1-.028.093c-.028.028-.055.009-.092-.009a.179.179,0,0,0-.1-.019c-.046,0-.009.075-.009.075s-.193-.009-.156-.037.074-.037.046-.056,0-.037,0-.074.092-.019.064-.047,0-.136.046-.075l.028-.065c-.028-.028-.009-.037-.064-.056s-.009-.131-.009-.131l.009-.075c.018-.093.2-.1.211-.019a.57.57,0,0,1,0,.14l.055.019s-.009.056-.055.056,0,.028-.028.056l.028.046Z" transform="translate(-316.018 -208.067)"/><path class="a" d="M330.8,224.66c.028-.056.092-.3.165-.224s.119,0,.119,0a.12.12,0,0,1,.018.112c-.018.074-.037.149-.083.158s-.083.037-.137.047S330.8,224.66,330.8,224.66Z" transform="translate(-314.234 -209.582)"/></g><path class="a" d="M313.905,276.747a9.239,9.239,0,1,1-9.239-9.239A9.239,9.239,0,0,1,313.905,276.747Z" transform="translate(-261.814 -234.696)"/><path class="a" d="M313.905,276.747a9.239,9.239,0,1,1-9.239-9.239A9.239,9.239,0,0,1,313.905,276.747Z" transform="translate(-295.427 -267.507)"/><path class="a" d="M313.905,276.747a9.239,9.239,0,1,1-9.239-9.239A9.239,9.239,0,0,1,313.905,276.747Z" transform="translate(-295.427 -234.696)"/><path class="a" d="M313.905,276.747a9.239,9.239,0,1,1-9.239-9.239A9.239,9.239,0,0,1,313.905,276.747Z" transform="translate(-295.427 -202.335)"/><path class="a" d="M313.905,276.747a9.239,9.239,0,1,1-9.239-9.239A9.239,9.239,0,0,1,313.905,276.747Z" transform="translate(-261.814 -202.335)"/><path class="a" d="M313.905,276.747a9.239,9.239,0,1,1-9.239-9.239A9.239,9.239,0,0,1,313.905,276.747Z" transform="translate(-228.202 -202.335)"/><path class="a" d="M313.905,276.747a9.239,9.239,0,1,1-9.239-9.239A9.239,9.239,0,0,1,313.905,276.747Z" transform="translate(-228.202 -267.507)"/><path class="a" d="M313.905,276.747a9.239,9.239,0,1,1-9.239-9.239A9.239,9.239,0,0,1,313.905,276.747Z" transform="translate(-261.814 -267.507)"/></g></g></svg>